<svg width="31" height="33" viewBox="0 0 31 33" fill="none" xmlns="http://www.w3.org/2000/svg">
<path d="M11.9475 17.0311C7.54751 17.0311 3.94751 13.2067 3.94751 8.53248C3.94751 3.85821 7.54751 0.0338135 11.9475 0.0338135C16.3475 0.0338135 19.9475 3.85821 19.9475 8.53248C19.9475 13.2067 16.3475 17.0311 11.9475 17.0311ZM11.9475 2.15848C8.54751 2.15848 5.94751 4.92055 5.94751 8.53248C5.94751 12.1444 8.54751 14.9065 11.9475 14.9065C15.3475 14.9065 17.9475 12.1444 17.9475 8.53248C17.9475 4.92055 15.3475 2.15848 11.9475 2.15848Z" fill="white"/>
<path d="M24.9473 11.7195V15.9689H20.9473V18.0935H24.9473V22.3429H26.9473V18.0935H30.9473V15.9689H26.9473V11.7195H24.9473Z" fill="white"/>
<path d="M15.9474 20.2181H7.94739C4.14739 20.2181 0.947388 23.6176 0.947388 27.6545V32.9661H22.9474V27.6545C22.9474 23.6176 19.7474 20.2181 15.9474 20.2181Z" fill="white"/>
</svg>
