<svg width="40" height="40" viewBox="0 0 40 40" fill="none" xmlns="http://www.w3.org/2000/svg">
<g clip-path="url(#clip0)">
<path d="M19.9609 39.9994C8.96112 39.9821 -0.00872965 30.9689 -5.47482e-05 19.9691C0.00862016 9.00399 9.04787 -0.026579 19.9783 -0.000554243C31.0214 0.0341454 40.0173 9.00399 39.9999 19.9691C39.9826 31.0469 31.0041 40.0255 19.9609 39.9994ZM5.79478 30.3616C5.82948 30.0753 5.83816 29.8324 5.88153 29.6069C6.67962 25.3822 9.09992 22.5889 13.2292 21.2963C13.8624 21.0968 14.3569 21.1489 14.9902 21.4959C18.4948 23.4651 21.9995 23.4043 25.4348 21.2616C25.5822 21.1749 25.7818 21.0881 25.9379 21.1142C30.0585 21.8342 33.3897 25.2087 34.0576 29.3119C34.1097 29.6416 34.1617 29.9799 34.2224 30.3529C38.9676 24.1244 39.1324 14.0354 32.3313 7.41649C25.3567 0.632714 14.435 0.684763 7.58181 7.50324C0.789361 14.2697 1.15371 24.3239 5.79478 30.3616Z" fill="#B3B4B4"/>
<path d="M20.0043 4.71923C24.8796 4.6932 28.5578 9.33427 27.4214 14.0881C26.8835 16.3436 25.7558 18.2261 23.8907 19.6314C21.5745 21.375 18.7725 21.4791 16.3869 19.8222C13.8191 18.0265 12.4485 15.4935 12.3964 12.3618C12.327 8.12846 15.771 4.74525 20.0043 4.71923Z" fill="#B3B4B4"/>
</g>
<defs>
<clipPath id="clip0">
<rect width="40" height="40" fill="white"/>
</clipPath>
</defs>
</svg>
