<?xml version="1.0" encoding="iso-8859-1"?>
<!-- Generator: Adobe Illustrator 19.0.0, SVG Export Plug-In . SVG Version: 6.00 Build 0)  -->
<svg version="1.1" id="Capa_1" xmlns="http://www.w3.org/2000/svg" xmlns:xlink="http://www.w3.org/1999/xlink" x="0px" y="0px"
	 viewBox="0 0 512 512" style="enable-background:new 0 0 512 512;" xml:space="preserve">
<circle style="fill:#FFEA84;" cx="256" cy="256" r="256"/>
<g>
	<path style="fill:#FFDC40;" d="M256,0v512c141.385,0,256-114.615,256-256S397.385,0,256,0z"/>
	<circle style="fill:#FFDC40;" cx="256" cy="256" r="196"/>
</g>
<path style="fill:#FFAB15;" d="M256,60v392c108.248,0,196-87.752,196-196S364.248,60,256,60z"/>
<path style="fill:#FFEA84;" d="M320,305.998c-0.004-30.291-20.876-55.821-49-62.987v-68.46c9.281,4.6,16.586,13.346,19.505,24.308
	l28.99-7.717c-6.495-24.4-25.451-42.701-48.495-48.325V116h-30v26.855c-11.242,2.776-21.824,8.588-30.315,16.863
	c-12.696,12.374-19.687,28.811-19.685,46.284c0.004,30.647,21.374,56.408,50,63.219v68.708
	c-9.756-4.455-17.483-13.434-20.505-24.788l-28.99,7.716c6.588,24.753,25.999,43.236,49.495,48.567V396h30v-27.114
	c10.869-2.869,21.077-8.576,29.315-16.604C313.012,339.908,320.002,323.471,320,305.998z M221,205.998
	c-0.002-13.638,8.287-25.756,20-31.49v63.09C229.188,231.961,221.002,219.913,221,205.998z M271,336.973v-62.066
	c11.27,5.828,18.998,17.578,19,31.096C290.002,319.246,282.18,331.05,271,336.973z"/>
<path style="fill:#FFDC40;" d="M271,243.011v-68.46c9.281,4.6,16.586,13.346,19.505,24.308l28.99-7.717
	c-6.495-24.4-25.451-42.701-48.495-48.325V116h-15.5v280H271v-27.114c10.869-2.869,21.077-8.576,29.315-16.604
	c12.696-12.374,19.687-28.811,19.685-46.284C319.996,275.707,299.124,250.177,271,243.011z M271,336.973v-62.066
	c11.27,5.828,18.998,17.578,19,31.096C290.002,319.246,282.18,331.05,271,336.973z"/>
<g>
</g>
<g>
</g>
<g>
</g>
<g>
</g>
<g>
</g>
<g>
</g>
<g>
</g>
<g>
</g>
<g>
</g>
<g>
</g>
<g>
</g>
<g>
</g>
<g>
</g>
<g>
</g>
<g>
</g>
</svg>
