<svg width="19" height="15" viewBox="0 0 19 15" fill="none" xmlns="http://www.w3.org/2000/svg">
<path d="M4.15944 15C2.67025 15 1.38647 15 -1.68774e-05 15C-1.68774e-05 12.1243 -0.0513682 9.30049 0.0256588 6.47666C0.0513345 5.33676 0.975659 4.715 2.31079 4.715C5.16079 4.68909 8.03647 4.715 10.9121 4.715C11.323 4.715 11.7594 4.715 12.2986 4.715C12.2986 3.05697 12.2986 1.47666 12.2986 0.0258789C14.5581 2.30567 16.8432 4.61137 19 6.81344C16.9203 8.88598 14.6351 11.1917 12.35 13.4974C12.35 12.1243 12.35 10.5699 12.35 8.9378C9.57701 8.9378 6.95809 8.9378 4.18512 8.9378C4.15944 10.8808 4.15944 12.8756 4.15944 15Z" fill="white"/>
</svg>
