<svg width="21" height="23" viewBox="0 0 21 23" fill="none" xmlns="http://www.w3.org/2000/svg">
<path d="M11.7954 19.04V19.48C11.7954 19.8301 11.659 20.1658 11.416 20.4134C11.1731 20.6609 10.8436 20.8 10.5 20.8C10.1564 20.8 9.82691 20.6609 9.58396 20.4134C9.34102 20.1658 9.20453 19.8301 9.20453 19.48V19.04H7.04544V19.48C7.04544 20.4135 7.4094 21.3089 8.05725 21.969C8.70511 22.6291 9.58378 23 10.5 23C11.4162 23 12.2949 22.6291 12.9427 21.969C13.5906 21.3089 13.9545 20.4135 13.9545 19.48V19.04H11.7954Z" fill="white"/>
<path d="M18.859 16.8394C18.5887 16.8394 18.3295 16.73 18.1384 16.5352C17.9472 16.3405 17.8399 16.0764 17.8399 15.801V10.6794C17.8383 8.88731 17.2054 7.15537 16.0562 5.79873C14.9071 4.44209 13.3181 3.55091 11.5785 3.28737V2.16097C11.5854 1.88011 11.4906 1.60649 11.3122 1.39226C11.1338 1.17804 10.8843 1.03819 10.6112 0.999375C10.4603 0.983293 10.3078 0.999808 10.1636 1.04784C10.0193 1.09587 9.88666 1.17435 9.77421 1.27814C9.66175 1.38193 9.57203 1.50872 9.51089 1.65022C9.44976 1.79172 9.41859 1.94477 9.41941 2.09937V3.28737C7.67979 3.55091 6.09084 4.44209 4.9417 5.79873C3.79256 7.15537 3.15962 8.88731 3.15805 10.6794V15.801C3.15805 16.0764 3.05068 16.3405 2.85956 16.5352C2.66845 16.73 2.40924 16.8394 2.13896 16.8394C1.86332 16.8324 1.59478 16.9289 1.38454 17.1107C1.1743 17.2925 1.03705 17.5467 0.998959 17.825C0.983176 17.9787 0.999383 18.1342 1.04652 18.2811C1.09366 18.4281 1.17068 18.5633 1.27254 18.6779C1.3744 18.7924 1.49883 18.8839 1.6377 18.9462C1.77657 19.0084 1.92677 19.0402 2.0785 19.0394H18.9194C19.0711 19.0402 19.2213 19.0084 19.3602 18.9462C19.4991 18.8839 19.6235 18.7924 19.7254 18.6779C19.8272 18.5633 19.9043 18.4281 19.9514 18.2811C19.9985 18.1342 20.0147 17.9787 19.999 17.825C19.9609 17.5467 19.8236 17.2925 19.6134 17.1107C19.4031 16.9289 19.1346 16.8324 18.859 16.8394ZM5.31714 16.8394V10.8334C5.30312 9.50135 5.77369 8.21122 6.63807 7.21184C7.50244 6.21246 8.6994 5.57463 9.99805 5.42137C10.7176 5.35017 11.4438 5.43317 12.13 5.66504C12.8162 5.89692 13.4472 6.27253 13.9825 6.76775C14.5177 7.26296 14.9453 7.86681 15.2378 8.54048C15.5302 9.21415 15.6811 9.94273 15.6808 10.6794V16.8394H5.31714Z" fill="#F2F2F2"/>
</svg>
