<svg width="17" height="17" viewBox="0 0 17 17" fill="none" xmlns="http://www.w3.org/2000/svg">
<path d="M2.83333 0C1.26853 0 0 1.26853 0 2.83333V5.1C0 11.6722 5.32781 17 11.9 17H14.1667C15.7315 17 17 15.7315 17 14.1667V12.6004C17 11.9565 16.6362 11.3679 16.0603 11.0799L13.3222 9.71088C12.3969 9.24823 11.2763 9.71238 10.9492 10.6938L10.6117 11.7062C10.4835 12.0909 10.0889 12.3199 9.6913 12.2404C7.20265 11.7426 5.25736 9.79735 4.75963 7.3087C4.68011 6.9111 4.9091 6.51651 5.29377 6.38829L6.55022 5.96947C7.39294 5.68856 7.87732 4.80619 7.66187 3.9444L6.9977 1.28769C6.8085 0.530905 6.12853 0 5.34845 0H2.83333Z" fill="white"/>
</svg>
