<svg width="22" height="22" viewBox="0 0 22 22" fill="none" xmlns="http://www.w3.org/2000/svg">
<g clip-path="url(#clip0)">
<path d="M10.5066 7.03764C10.5066 7.93479 10.5066 8.83193 10.5066 9.72908C10.5066 10.3272 10.2972 10.5564 9.70912 10.5664C7.93476 10.5764 6.16041 10.5764 4.37608 10.5664C3.78796 10.5664 3.56865 10.3371 3.55868 9.73905C3.54872 7.94476 3.54872 6.15047 3.55868 4.35618C3.55868 3.73814 3.78796 3.52881 4.41596 3.52881C6.16041 3.52881 7.90486 3.52881 9.64931 3.52881C10.2972 3.52881 10.5066 3.74811 10.5066 4.40602C10.5165 5.27326 10.5066 6.15047 10.5066 7.03764ZM9.17083 4.86456C7.74536 4.86456 6.33984 4.86456 4.93431 4.86456C4.93431 6.3299 4.93431 7.76533 4.93431 9.19079C6.36974 9.19079 7.77527 9.19079 9.17083 9.19079C9.17083 7.72545 9.17083 6.30996 9.17083 4.86456Z" fill="#CCCCCC"/>
<path d="M11.4934 7.02766C11.4934 6.13052 11.4934 5.23337 11.4934 4.33623C11.4934 3.7481 11.7227 3.5288 12.3108 3.51883C14.0852 3.50886 15.8595 3.50886 17.6439 3.51883C18.1921 3.51883 18.4314 3.7481 18.4314 4.30632C18.4413 6.13052 18.4413 7.95471 18.4314 9.78888C18.4314 10.3172 18.1921 10.5465 17.6538 10.5564C15.8595 10.5664 14.0652 10.5664 12.271 10.5564C11.7127 10.5564 11.4934 10.3172 11.4835 9.75897C11.4835 8.85186 11.4934 7.93478 11.4934 7.02766ZM12.8292 9.20075C14.2546 9.20075 15.6502 9.20075 17.0657 9.20075C17.0657 7.73541 17.0657 6.30995 17.0657 4.87452C15.6303 4.87452 14.2247 4.87452 12.8292 4.87452C12.8292 6.33985 12.8292 7.75535 12.8292 9.20075Z" fill="#CCCCCC"/>
<path d="M10.5066 14.9425C10.5066 15.8596 10.5165 16.7667 10.5066 17.6838C10.5066 18.242 10.2773 18.4713 9.71906 18.4713C7.92477 18.4813 6.13048 18.4813 4.33619 18.4713C3.80787 18.4713 3.56863 18.242 3.56863 17.7038C3.55867 15.8796 3.55867 14.0554 3.56863 12.2212C3.56863 11.663 3.7979 11.4337 4.3661 11.4237C6.14045 11.4138 7.91481 11.4138 9.69913 11.4237C10.2972 11.4237 10.5066 11.653 10.5165 12.2411C10.5165 13.1482 10.5066 14.0454 10.5066 14.9425ZM9.16084 17.1356C9.16084 15.6702 9.16084 14.2348 9.16084 12.8093C7.72541 12.8093 6.32985 12.8093 4.92432 12.8093C4.92432 14.2747 4.92432 15.6902 4.92432 17.1356C6.33982 17.1356 7.72541 17.1356 9.16084 17.1356Z" fill="#CCCCCC"/>
<path d="M5.19333 0.000279957C6.06057 0.000279957 6.91784 -0.00968833 7.78508 0.000279957C8.40312 0.0102482 8.79188 0.339202 8.80185 0.857552C8.81182 1.39584 8.41309 1.74473 7.77512 1.74473C6.18019 1.7547 4.58527 1.74473 2.99034 1.74473C2.04335 1.74473 1.76424 2.02384 1.76424 2.95089C1.76424 4.57572 1.77421 6.21052 1.75427 7.83535C1.7443 8.56303 1.0864 9.03154 0.518205 8.67269C0.278966 8.52316 0.0397276 8.15433 0.0397276 7.88519C-0.000145528 6.061 -0.0101138 4.22683 0.0397276 2.40264C0.0596642 1.13666 1.15618 0.0700579 2.45205 0.0202165C3.36913 -0.0196566 4.27625 0.0102482 5.19333 0.000279957C5.19333 0.0102482 5.19333 0.0102482 5.19333 0.000279957Z" fill="#CCCCCC"/>
<path d="M16.8564 3.58163e-05C17.6738 3.58163e-05 18.4812 -0.00993247 19.2986 3.58163e-05C20.8836 0.0199724 21.9801 1.11648 21.99 2.71141C22 4.38608 22 6.07072 21.99 7.74539C21.99 8.4033 21.6511 8.79206 21.1128 8.79206C20.5845 8.79206 20.2456 8.39333 20.2456 7.74539C20.2456 6.13053 20.2456 4.52564 20.2456 2.91077C20.2456 2.04353 19.9465 1.75445 19.0693 1.74449C17.4246 1.74449 15.7798 1.74449 14.135 1.73452C13.5668 1.73452 13.188 1.35572 13.198 0.857308C13.208 0.368862 13.5668 0.0299407 14.1051 3.58163e-05C14.2247 -0.00993247 14.3344 3.58163e-05 14.454 3.58163e-05C15.2614 3.58163e-05 16.0589 3.58163e-05 16.8564 3.58163e-05Z" fill="#CCCCCC"/>
<path d="M5.10377 21.9901C4.30631 21.9901 3.50885 22.0001 2.71138 21.9901C1.11646 21.9702 0.0299152 20.8737 0.00997865 19.2887C1.0371e-05 17.6041 1.0371e-05 15.9294 0.00997865 14.2548C0.00997865 13.5969 0.3489 13.2081 0.877219 13.1981C1.40554 13.1981 1.75443 13.5969 1.75443 14.2448C1.75443 15.8597 1.75443 17.4645 1.75443 19.0794C1.75443 19.9466 2.05348 20.2457 2.93069 20.2457C4.57545 20.2457 6.22022 20.2457 7.86498 20.2457C8.25375 20.2457 8.59267 20.3853 8.69235 20.7541C8.76213 21.0232 8.75216 21.412 8.60264 21.6213C8.44315 21.8307 8.07432 21.9702 7.79521 21.9802C6.89806 22.0201 6.00092 21.9901 5.10377 21.9901Z" fill="#CCCCCC"/>
<path d="M21.9901 16.8764C21.9901 17.6738 22 18.4713 21.9901 19.2688C21.9701 20.8637 20.8936 21.9702 19.3086 21.9801C17.614 22.0001 15.9194 21.9901 14.2248 21.9801C13.5768 21.9801 13.1881 21.6213 13.208 21.083C13.2279 20.5647 13.6067 20.2457 14.2347 20.2357C15.8596 20.2257 17.4944 20.2357 19.1192 20.2357C19.9466 20.2357 20.2556 19.9267 20.2556 19.0794C20.2556 17.4346 20.2556 15.7898 20.2656 14.1451C20.2656 13.4772 20.7939 13.0486 21.372 13.228C21.8106 13.3675 22.01 13.6766 22.01 14.1351C21.9901 15.0522 21.9901 15.9693 21.9901 16.8764Z" fill="#CCCCCC"/>
<path d="M15.8396 14.1052C15.8396 14.6136 15.8496 15.0821 15.8297 15.5606C15.8197 15.6602 15.6702 15.8197 15.5805 15.8197C15.102 15.8496 14.6235 15.8297 14.1151 15.8297C14.1151 15.2316 14.1151 14.6833 14.1151 14.0952C14.6733 14.1052 15.2116 14.1052 15.8396 14.1052Z" fill="#CCCCCC"/>
<path d="M18.0127 18.0127C17.4246 18.0127 16.8863 18.0127 16.3181 18.0127C16.3181 17.4445 16.3181 16.9062 16.3181 16.3181C16.8664 16.3181 17.4246 16.3181 18.0127 16.3181C18.0127 16.8564 18.0127 17.4146 18.0127 18.0127Z" fill="#CCCCCC"/>
<path d="M11.9121 18.0128C11.9121 17.4147 11.9121 16.8764 11.9121 16.2982C12.4803 16.2982 13.0186 16.2982 13.5967 16.2982C13.5967 16.8564 13.5967 17.4147 13.5967 18.0128C13.0385 18.0128 12.4903 18.0128 11.9121 18.0128Z" fill="#CCCCCC"/>
<path d="M16.3081 13.5768C16.3081 13.0186 16.3081 12.4803 16.3081 11.9121C16.8763 11.9121 17.4246 11.9121 18.0127 11.9121C18.0127 12.4504 18.0127 12.9887 18.0127 13.5768C17.4644 13.5768 16.9162 13.5768 16.3081 13.5768Z" fill="#CCCCCC"/>
<path d="M11.9121 13.5968C11.9121 13.0186 11.9121 12.4803 11.9121 11.9121C12.4803 11.9121 13.0286 11.9121 13.6167 11.9121C13.6167 12.4703 13.6167 13.0186 13.6167 13.5968C13.0385 13.5968 12.5002 13.5968 11.9121 13.5968Z" fill="#CCCCCC"/>
<path d="M7.89487 6.16038C7.89487 6.77841 7.89487 7.32667 7.89487 7.89486C7.31671 7.89486 6.76846 7.89486 6.16039 7.89486C6.16039 7.39645 6.15042 6.91797 6.17036 6.43949C6.18033 6.33981 6.32985 6.18032 6.41957 6.18032C6.89804 6.14044 7.37652 6.16038 7.89487 6.16038Z" fill="#CCCCCC"/>
<path d="M14.1052 7.87503C14.1052 7.29687 14.1052 6.75858 14.1052 6.18042C14.6634 6.18042 15.2116 6.18042 15.7998 6.18042C15.7998 6.72868 15.7998 7.27693 15.7998 7.87503C15.2515 7.87503 14.7033 7.87503 14.1052 7.87503Z" fill="#CCCCCC"/>
<path d="M7.89488 14.1052C7.89488 14.6934 7.89488 15.2316 7.89488 15.8098C7.32669 15.8098 6.76847 15.8098 6.19031 15.8098C6.19031 15.2316 6.19031 14.6734 6.19031 14.1052C6.76847 14.1052 7.30676 14.1052 7.89488 14.1052Z" fill="#CCCCCC"/>
</g>
<defs>
<clipPath id="clip0">
<rect width="22" height="22" fill="white"/>
</clipPath>
</defs>
</svg>
