<svg width="20" height="20" viewBox="0 0 20 20" fill="none" xmlns="http://www.w3.org/2000/svg">
<path d="M1.30512 0.475098L0.0280151 0.858228L4.17055 14.6667H19.9999V6C19.9999 4.15905 18.5075 2.66666 16.6666 2.66666H1.96259L1.30512 0.475098Z" fill="white"/>
<path fill-rule="evenodd" clip-rule="evenodd" d="M7.33335 16C6.22878 16 5.33335 16.8954 5.33335 18C5.33335 19.1046 6.22878 20 7.33335 20C8.43792 20 9.33335 19.1046 9.33335 18C9.33335 16.8954 8.43792 16 7.33335 16ZM6.66669 18C6.66669 17.6318 6.96516 17.3333 7.33335 17.3333C7.70154 17.3333 8.00002 17.6318 8.00002 18C8.00002 18.3682 7.70154 18.6667 7.33335 18.6667C6.96516 18.6667 6.66669 18.3682 6.66669 18Z" fill="white"/>
<path fill-rule="evenodd" clip-rule="evenodd" d="M16.6667 16C15.5621 16 14.6667 16.8954 14.6667 18C14.6667 19.1046 15.5621 20 16.6667 20C17.7713 20 18.6667 19.1046 18.6667 18C18.6667 16.8954 17.7713 16 16.6667 16ZM16 18C16 17.6318 16.2985 17.3333 16.6667 17.3333C17.0349 17.3333 17.3334 17.6318 17.3334 18C17.3334 18.3682 17.0349 18.6667 16.6667 18.6667C16.2985 18.6667 16 18.3682 16 18Z" fill="white"/>
</svg>
