<svg xmlns="http://www.w3.org/2000/svg" width="17.836" height="16.7" viewBox="0 0 17.836 16.7">
  <g id="Orion_user-group" transform="translate(-1.6 -3.632)">
    <path id="layer2" d="M27.4,6.36a2.551,2.551,0,0,1,2.555-2.1S34.5,2.811,34.5,7.439c0,3.89.88,4.316,1.817,5.253a16.071,16.071,0,0,1-3.634.426v.454c0,.454-.085,1.363,2.186,1.817a2.626,2.626,0,0,1,2.357,2.272H31.262" transform="translate(-18.188)" fill="none" stroke="#fff" stroke-linecap="round" stroke-linejoin="round" stroke-miterlimit="10" stroke-width="0.8"/>
    <path id="layer1" d="M12.25,23.23c-2.272-.312-2.272-1.136-2.272-1.59v-.256A4.146,4.146,0,0,0,11.171,19.4c.681,0,.852-1.448.852-1.647s-.057-1.022-.369-1.107c1.136-3.975-2.272-5.679-5.224-3.634-1.249,0-1.647,1.817-1.193,3.634-.312,0-.369.852-.369,1.079s.17,1.647.852,1.647a4.428,4.428,0,0,0,1.391,1.988v.284c0,.454-.17,1.306-2.47,1.59A3.069,3.069,0,0,0,2,25.729H14.493A2.514,2.514,0,0,0,12.25,23.23Z" transform="translate(0 -5.797)" fill="none" stroke="#fff" stroke-linecap="round" stroke-linejoin="round" stroke-miterlimit="10" stroke-width="0.8"/>
  </g>
</svg>
