<svg width="20" height="21" viewBox="0 0 20 21" fill="none" xmlns="http://www.w3.org/2000/svg">
<path d="M15.2509 10.6184L17.8197 13.0821L18.8951 6.48117L14.5289 2.35469C14.1899 2.03537 13.7308 1.85608 13.2521 1.85608C12.7735 1.85608 12.3143 2.03537 11.9753 2.35469L2.24349 11.5558C2.13606 11.656 2.05077 11.7754 1.99255 11.907C1.93434 12.0386 1.90436 12.1799 1.90436 12.3225C1.90436 12.4652 1.93434 12.6064 1.99255 12.7381C2.05077 12.8697 2.13606 12.9891 2.24349 13.0893L9.21651 19.6795C9.32255 19.781 9.44887 19.8616 9.58814 19.9166C9.72741 19.9716 9.87686 20 10.0278 20C10.1788 20 10.3282 19.9716 10.4675 19.9166C10.6067 19.8616 10.7331 19.781 10.8391 19.6795L15.9387 14.8598" stroke="#28ABAE" stroke-width="2" stroke-linecap="round" stroke-linejoin="round"/>
</svg>
