<svg width="18" height="17" viewBox="0 0 18 17" fill="none" xmlns="http://www.w3.org/2000/svg">
<g clip-path="url(#clip0)">
<path d="M5.8 7.6H2.3C1.3 7.6 0.5 6.8 0.5 5.8V2.3C0.5 1.3 1.3 0.5 2.3 0.5H5.8C6.8 0.5 7.6 1.3 7.6 2.3V5.8C7.6 6.8 6.8 7.6 5.8 7.6Z" stroke="#87D65A" stroke-width="1.5" stroke-miterlimit="10"/>
<path d="M15.1 7.6H11.6C10.6 7.6 9.8 6.8 9.8 5.8V2.3C9.8 1.3 10.6 0.5 11.6 0.5H15.1C16.1 0.5 16.9 1.3 16.9 2.3V5.8C17 6.8 16.1 7.6 15.1 7.6Z" stroke="#29B0B4" stroke-width="1.5" stroke-miterlimit="10"/>
<path d="M5.8 16.6H2.3C1.3 16.6 0.5 15.8 0.5 14.8V11.3C0.5 10.3 1.3 9.5 2.3 9.5H5.8C6.8 9.5 7.6 10.3 7.6 11.3V14.8C7.6 15.7 6.8 16.6 5.8 16.6Z" stroke="#29B0B4" stroke-width="1.5" stroke-miterlimit="10"/>
<path d="M15.1 16.6H11.6C10.6 16.6 9.8 15.8 9.8 14.8V11.3C9.8 10.3 10.6 9.5 11.6 9.5H15.1C16.1 9.5 16.9 10.3 16.9 11.3V14.8C17 15.7 16.1 16.6 15.1 16.6Z" stroke="#87D65A" stroke-width="1.5" stroke-miterlimit="10"/>
</g>
<defs>
<clipPath id="clip0">
<rect width="17.4" height="17" fill="white"/>
</clipPath>
</defs>
</svg>
