<svg width="33" height="47" viewBox="0 0 33 47" fill="none" xmlns="http://www.w3.org/2000/svg">
<path d="M23.5669 38.9672C23.5669 38.6207 23.5669 38.4001 23.5669 38.1796C23.5669 29.4538 23.5669 20.6964 23.5669 11.9705C23.5669 10.679 22.9044 9.79693 21.8002 9.51342C20.5382 9.1669 19.2132 9.98594 18.9292 11.246C18.8661 11.561 18.8346 11.876 18.8346 12.191C18.8346 22.87 18.8346 33.5804 18.8346 44.2594C18.8346 44.6689 18.8661 45.0784 18.9923 45.4565C19.4656 46.9685 21.3585 47.5355 22.652 46.5905C22.7151 46.5275 22.8097 46.4645 22.8728 46.4015C26.0277 43.2514 29.2141 40.1012 32.3375 36.9196C33.3786 35.88 33.1893 34.179 31.9904 33.3599C31.0124 32.6984 29.8136 32.7929 28.9302 33.6749C27.3212 35.2815 25.7122 36.8881 24.1032 38.5262C23.9455 38.6207 23.7878 38.7467 23.5669 38.9672Z" fill="#28ABAE"/>
<path d="M9.43306 8.15883C9.43306 8.34784 9.43306 8.56834 9.43306 8.75735C9.43306 17.5147 9.43306 26.2721 9.43306 35.0295C9.43306 36.132 9.8432 36.9511 10.8843 37.4236C12.2725 38.0221 13.8183 37.2031 14.1023 35.7225C14.1654 35.4705 14.1654 35.2185 14.1654 34.9665C14.1654 24.2245 14.1654 13.4826 14.1654 2.7406C14.1654 2.36258 14.1338 1.98456 14.0392 1.66955C13.566 0.0944837 11.6099 -0.47254 10.3164 0.567004C10.1902 0.661508 10.0956 0.756012 10.0009 0.850516C6.90916 3.87464 3.84893 6.93028 0.788704 9.98591C-0.12621 10.8994 -0.252405 12.1595 0.441668 13.136C1.29348 14.3331 2.96557 14.4591 4.06977 13.388C5.67876 11.7815 7.28775 10.1434 8.89673 8.53684C9.02293 8.37934 9.14912 8.22183 9.27532 8.06432C9.33842 8.09582 9.36997 8.12733 9.43306 8.15883Z" fill="#87D65A"/>
</svg>
