<svg width="19" height="15" viewBox="0 0 19 15" fill="none" xmlns="http://www.w3.org/2000/svg">
<path d="M5.77007 15H0.453369V12.6487C0.453369 12.4054 0.577013 12.1622 0.741872 12L4.28634 8.95949C4.86335 8.473 5.72886 8.87841 5.72886 9.60814V15H5.77007Z" fill="#29B0B4"/>
<path d="M10.8395 15H6.84167V10.2162C6.84167 9.85138 7.17139 9.60814 7.54233 9.72976L10.5098 10.6622C10.7159 10.7433 10.8807 10.946 10.8807 11.1487V15H10.8395Z" fill="#87D65A"/>
<path d="M16.0325 15H12.4468C12.1171 15 11.8286 14.7163 11.8286 14.3919V7.98653C11.8286 7.82437 11.911 7.66221 12.0347 7.54058L15.8677 4.17572C16.1562 3.89194 16.6507 4.13518 16.6507 4.50004V14.3919C16.6095 14.7568 16.3622 15 16.0325 15Z" fill="#29B0B4"/>
<path d="M0.453369 10.1757L5.77007 5.59461L10.8395 6.60812L16.6095 2.02704" stroke="#87D65A" stroke-width="1.25" stroke-miterlimit="10" stroke-linecap="round" stroke-linejoin="round"/>
<path d="M15.8264 1.05407L17.5986 2.79731C17.7223 2.91893 17.8871 2.87839 17.9696 2.71623L18.9587 0.283798C19.0412 0.121636 18.8763 -0.0405264 18.7114 1.409e-05L15.9088 0.689203C15.744 0.729744 15.7028 0.932446 15.8264 1.05407Z" fill="#87D65A"/>
</svg>
