<svg width="11" height="11" viewBox="0 0 11 11" fill="none" xmlns="http://www.w3.org/2000/svg">
<path d="M5.50005 5.50005H5.00005C5.00005 5.63266 5.05273 5.75983 5.1465 5.8536L5.50005 5.50005ZM5.50005 9.20005C3.4566 9.20005 1.80005 7.5435 1.80005 5.50005H0.800049C0.800049 8.09579 2.90431 10.2 5.50005 10.2V9.20005ZM9.20005 5.50005C9.20005 7.5435 7.5435 9.20005 5.50005 9.20005V10.2C8.09579 10.2 10.2 8.09579 10.2 5.50005H9.20005ZM5.50005 1.80005C7.5435 1.80005 9.20005 3.4566 9.20005 5.50005H10.2C10.2 2.90431 8.09579 0.800049 5.50005 0.800049V1.80005ZM5.50005 0.800049C2.90431 0.800049 0.800049 2.90431 0.800049 5.50005H1.80005C1.80005 3.4566 3.4566 1.80005 5.50005 1.80005V0.800049ZM5.00005 2.80005V5.50005H6.00005V2.80005H5.00005ZM5.1465 5.8536L6.9465 7.6536L7.6536 6.9465L5.8536 5.1465L5.1465 5.8536Z" fill="#4F4F4F"/>
</svg>
