<svg width="10" height="10" viewBox="0 0 10 10" fill="none" xmlns="http://www.w3.org/2000/svg">
<path d="M6.66667 3C6.66667 2.81591 6.81591 2.66667 7 2.66667C7.18409 2.66667 7.33333 2.81591 7.33333 3C7.33333 3.18409 7.18409 3.33333 7 3.33333C6.81591 3.33333 6.66667 3.18409 6.66667 3Z" fill="#87D65A"/>
<path fill-rule="evenodd" clip-rule="evenodd" d="M4.7643 0.0976311C4.82681 0.0351189 4.91159 0 5 0H9C9.55228 0 10 0.447715 10 1V5C10 5.08841 9.96488 5.17319 9.90237 5.2357L5.2357 9.90237C5.10553 10.0325 4.89447 10.0325 4.7643 9.90237L0.0976311 5.2357C-0.0325437 5.10553 -0.0325437 4.89447 0.0976311 4.7643L4.7643 0.0976311ZM7 2C6.44772 2 6 2.44772 6 3C6 3.55228 6.44772 4 7 4C7.55229 4 8 3.55228 8 3C8 2.44772 7.55229 2 7 2Z" fill="#87D65A"/>
</svg>
