<svg width="38" height="25" viewBox="0 0 38 25" fill="none" xmlns="http://www.w3.org/2000/svg">
<g clip-path="url(#clip0)">
<path d="M30.8356 10.7955H18.7994C18.008 10.7955 17.3665 11.4314 17.3665 12.2159C17.3665 13.0004 18.008 13.6364 18.7994 13.6364H30.8356C31.627 13.6364 32.2685 13.0004 32.2685 12.2159C32.2685 11.4314 31.627 10.7955 30.8356 10.7955Z" fill="white"/>
<path d="M9.38828 6.67047C9.23841 6.52162 9.05706 6.40761 8.85734 6.33669C8.65762 6.26577 8.4445 6.23969 8.23338 6.26035C8.02225 6.28101 7.81839 6.34788 7.63651 6.45614C7.45463 6.56441 7.29927 6.71135 7.18164 6.88638C7.0004 7.16973 6.92311 7.5063 6.96277 7.8395C7.00244 8.1727 7.15664 8.48219 7.39944 8.71593L10.185 11.4773H1.51317C1.13582 11.4701 0.769773 11.6051 0.488926 11.855C0.20808 12.1049 0.0333596 12.4512 4.32251e-05 12.8239C-0.00925009 13.0163 0.0208952 13.2087 0.0886592 13.3893C0.156423 13.5699 0.2604 13.735 0.394314 13.8746C0.528228 14.0143 0.6893 14.1256 0.867808 14.2018C1.04632 14.2781 1.23856 14.3177 1.43292 14.3182H14.2773C14.4927 14.3075 14.7007 14.2367 14.8773 14.1141C15.054 13.9914 15.1922 13.8218 15.276 13.6248C15.3598 13.4278 15.3858 13.2113 15.3511 13.0003C15.3164 12.7893 15.2223 12.5922 15.0797 12.4318L9.38828 6.67047Z" fill="white"/>
<path d="M33.2887 5.11364H26.5369V4.67045C26.5369 3.43177 26.0406 2.24382 25.157 1.36794C24.2735 0.492064 23.0752 0 21.8256 0L14.0537 0C12.8042 0 11.6058 0.492064 10.7223 1.36794C9.83875 2.24382 9.34238 3.43177 9.34238 4.67045V5.34659L12.2081 8.1875V4.67045C12.2081 4.18523 12.4026 3.71988 12.7487 3.37677C13.0948 3.03366 13.5642 2.84091 14.0537 2.84091H21.8256C22.3151 2.84091 22.7845 3.03366 23.1306 3.37677C23.4767 3.71988 23.6712 4.18523 23.6712 4.67045V5.11364H18.7994C18.4194 5.11364 18.0549 5.26329 17.7862 5.52968C17.5175 5.79606 17.3665 6.15736 17.3665 6.53409C17.3665 6.91082 17.5175 7.27212 17.7862 7.5385C18.0549 7.80489 18.4194 7.95454 18.7994 7.95454H33.2887C33.7782 7.95454 34.2476 8.1473 34.5937 8.49041C34.9398 8.83351 35.1342 9.29886 35.1342 9.78409V20.3295C35.1342 20.8148 34.9398 21.2801 34.5937 21.6232C34.2476 21.9663 33.7782 22.1591 33.2887 22.1591H14.0537C13.5642 22.1591 13.0948 21.9663 12.7487 21.6232C12.4026 21.2801 12.2081 20.8148 12.2081 20.3295V18.5227C12.099 18.7632 11.9476 18.9825 11.7611 19.1705L9.46847 21.4432C9.71801 22.4617 10.3059 23.3674 11.1376 24.0147C11.9693 24.6619 12.9964 25.0129 14.0537 25.0114H33.2887C34.5382 25.0114 35.7365 24.5193 36.6201 23.6434C37.5036 22.7675 38 21.5796 38 20.3409V9.78409C38 8.54541 37.5036 7.35746 36.6201 6.48158C35.7365 5.6057 34.5382 5.11364 33.2887 5.11364Z" fill="white"/>
<path d="M7.0383 18.3523L10.5575 14.8693H14.6612L9.06726 20.3636C8.93415 20.4959 8.77603 20.6009 8.60195 20.6725C8.42787 20.7441 8.24125 20.781 8.05278 20.781C7.8643 20.781 7.67768 20.7441 7.5036 20.6725C7.32952 20.6009 7.1714 20.4959 7.0383 20.3636C6.77158 20.0957 6.62204 19.7344 6.62204 19.358C6.62204 18.9815 6.77158 18.6202 7.0383 18.3523Z" fill="white"/>
</g>
<defs>
<clipPath id="clip0">
<rect width="38" height="25" fill="white"/>
</clipPath>
</defs>
</svg>
