<svg width="26" height="25" viewBox="0 0 26 25" fill="none" xmlns="http://www.w3.org/2000/svg">
<g clip-path="url(#clip0)">
<path d="M25.9428 17.5041C25.9428 17.4578 25.9428 17.4166 25.9012 17.3754C25.8818 17.3326 25.8592 17.2913 25.8336 17.2519C25.8194 17.2177 25.802 17.185 25.7816 17.1541C25.7336 17.0828 25.6797 17.0157 25.6204 16.9533L20.8416 12.222C20.5975 11.9803 20.2664 11.8446 19.9212 11.8446C19.576 11.8446 19.2449 11.9803 19.0008 12.222C18.7567 12.4637 18.6196 12.7915 18.6196 13.1333C18.6196 13.475 18.7567 13.8028 19.0008 14.0445L21.5592 16.5774H1.3C0.955218 16.5774 0.624558 16.713 0.380761 16.9544C0.136964 17.1958 0 17.5232 0 17.8645C0 18.2059 0.136964 18.5332 0.380761 18.7746C0.624558 19.016 0.955218 19.1516 1.3 19.1516H24.7C24.7846 19.1619 24.8702 19.1619 24.9548 19.1516C24.9918 19.1437 25.0283 19.1333 25.064 19.1207C25.1098 19.1093 25.1549 19.0956 25.1992 19.0795C25.2401 19.061 25.28 19.0403 25.3188 19.0177L25.4228 18.9611C25.5646 18.867 25.6865 18.7463 25.7816 18.6059C25.802 18.5732 25.8194 18.5387 25.8336 18.5029C25.8592 18.4652 25.8818 18.4256 25.9012 18.3845C25.9012 18.3433 25.9012 18.297 25.9428 18.2506C25.9563 18.2155 25.9667 18.1794 25.974 18.1425C26.0065 17.9724 26.0065 17.7978 25.974 17.6277C25.9667 17.5858 25.9563 17.5445 25.9428 17.5041ZM0.0572 7.50104C0.0572 7.54223 0.0832 7.58857 0.0988 7.62975C0.1144 7.67094 0.1404 7.71212 0.1664 7.75331C0.181683 7.78694 0.199049 7.81961 0.2184 7.85113C0.265033 7.92177 0.319065 7.98735 0.3796 8.04676L5.1584 12.778C5.27815 12.9011 5.42146 12.9993 5.57996 13.067C5.73847 13.1347 5.909 13.1704 6.0816 13.1721C6.25421 13.1739 6.42543 13.1415 6.58528 13.077C6.74513 13.0126 6.89041 12.9172 7.01264 12.7965C7.13486 12.6758 7.2316 12.5323 7.29719 12.3742C7.36278 12.2161 7.39592 12.0467 7.39466 11.8758C7.39341 11.7049 7.3578 11.536 7.2899 11.3789C7.222 11.2217 7.12318 11.0796 6.9992 10.9607L4.4408 8.42259H24.7208C25.0656 8.42259 25.3962 8.28698 25.64 8.04561C25.8838 7.80424 26.0208 7.47687 26.0208 7.13552C26.0208 6.79417 25.8838 6.4668 25.64 6.22542C25.3962 5.98405 25.0656 5.84845 24.7208 5.84845H1.3C1.21446 5.84938 1.12917 5.858 1.0452 5.87419L0.936 5.91023C0.889593 5.9192 0.844275 5.93301 0.8008 5.95142C0.759892 5.96997 0.719973 5.99059 0.6812 6.01319L0.5772 6.06468C0.435126 6.16063 0.313263 6.28303 0.2184 6.42506C0.199049 6.45657 0.181683 6.48924 0.1664 6.52287C0.140791 6.56234 0.118195 6.60364 0.0988 6.64643C0.0988 6.68762 0.0988 6.73395 0.0572 6.77514C0.0444141 6.81046 0.0339916 6.84658 0.026 6.88325C-0.00650128 7.05335 -0.00650128 7.22798 0.026 7.39808C0.0343788 7.43297 0.0447963 7.46735 0.0572 7.50104Z" fill="white"/>
<path d="M23.0204 20.5519C22.7752 20.3123 22.4445 20.178 22.1 20.178C21.7555 20.178 21.4248 20.3123 21.1796 20.5519L18.9124 22.8017C18.691 23.0469 18.5728 23.3667 18.5821 23.6955C18.5914 24.0242 18.7275 24.337 18.9624 24.5696C19.1973 24.8021 19.5132 24.9368 19.8452 24.946C20.1773 24.9552 20.5003 24.8382 20.748 24.619L23.0204 22.3744C23.2624 22.1316 23.3981 21.8042 23.3981 21.4631C23.3981 21.1221 23.2624 20.7947 23.0204 20.5519ZM5.25201 0.37583L2.97961 2.62562C2.74313 2.86869 2.61254 3.194 2.61597 3.53147C2.61941 3.86895 2.75659 4.19158 2.99797 4.42989C3.23935 4.66819 3.56561 4.8031 3.90649 4.80554C4.24736 4.80799 4.57556 4.67778 4.82041 4.44296L7.08761 2.19832C7.32478 1.95591 7.4563 1.63097 7.45383 1.29349C7.45136 0.956007 7.3151 0.632988 7.0744 0.394009C6.8337 0.15503 6.50782 0.0192127 6.16696 0.0158125C5.8261 0.0124123 5.49752 0.141701 5.25201 0.37583Z" fill="#F2F2F2"/>
</g>
<defs>
<clipPath id="clip0">
<rect width="26" height="25" fill="white"/>
</clipPath>
</defs>
</svg>
