<svg width="35" height="34" viewBox="0 0 35 34" fill="none" xmlns="http://www.w3.org/2000/svg">
<path d="M33.3684 18.0314C33.384 17.7218 33.3762 17.4123 33.3528 17.1028C33.2981 16.4309 33.2199 15.759 33.1027 15.0946C33.0167 14.6114 32.9151 14.1358 32.79 13.6602C32.665 13.1997 32.5243 12.7467 32.368 12.3013C32.2117 11.8634 32.0319 11.4406 31.8287 11.0179C31.6333 10.6026 31.4145 10.2025 31.18 9.80993C30.9455 9.41735 30.6876 9.03987 30.414 8.66995C30.1405 8.30002 29.8435 7.93764 29.5387 7.59791C29.226 7.25063 28.89 6.91091 28.5461 6.58628C28.1944 6.2541 27.8192 5.94456 27.4362 5.64258C27.1158 5.39345 26.7875 5.15186 26.4514 4.92538C26.1388 4.70644 25.8731 4.47995 25.8965 4.07983C25.9278 3.43812 26.6546 3.09839 27.2252 3.49097C27.9521 3.99678 28.6867 4.5026 29.3433 5.09902C33.2903 8.66995 35.1817 13.094 34.9863 18.3107C34.9472 19.428 34.6658 20.5454 34.4861 21.6627C34.4314 22.0175 34.1969 22.2516 33.8217 22.312C33.1887 22.4177 32.7588 21.9118 32.8682 21.2777C33.0636 20.2056 33.3137 19.1185 33.3684 18.0314Z" fill="#87D65A"/>
<path d="M25.5526 10.6857C25.5135 11.1462 25.365 11.4029 25.0524 11.5312C24.7476 11.6596 24.4349 11.6369 24.177 11.418C23.9582 11.2368 23.7628 11.0405 23.5439 10.8518C19.6126 7.52998 13.5241 8.08864 10.3196 12.0672C10.2414 12.1654 10.1633 12.2711 10.0851 12.3692C9.76467 12.7467 9.28791 12.8222 8.91275 12.558C8.52978 12.2862 8.45943 11.7955 8.76425 11.3878C9.85065 9.94583 11.2262 8.83605 12.891 8.06599C16.9865 6.17861 21.9651 7.00151 25.1618 10.1044C25.3416 10.3007 25.4588 10.5498 25.5526 10.6857Z" fill="#87D65A"/>
<path d="M3.387 16.4007C3.73871 12.792 5.3175 9.68918 8.20154 7.22803C10.0773 5.62752 12.2579 4.61589 14.7043 4.11762C15.3921 3.98173 15.8845 4.26861 15.9079 4.81972C15.9314 5.2727 15.65 5.58223 15.1107 5.68037C13.1489 6.05785 11.3669 6.82035 9.80377 8.02828C7.02917 10.1874 5.43474 12.9808 5.07522 16.4083C5.00487 17.0953 4.60627 17.4878 4.06698 17.3822C3.63711 17.2916 3.36355 16.9367 3.387 16.4007Z" fill="#87D65A"/>
<path d="M17.6665 0.6297C19.2218 0.644799 20.8241 0.856186 22.3951 1.30161C22.7937 1.41485 23.0281 1.65644 23.0516 2.04901C23.075 2.39629 22.9109 2.68317 22.5748 2.80397C22.3638 2.87946 22.0824 2.87946 21.8636 2.81907C19.8002 2.28305 17.7212 2.10186 15.5953 2.35854C12.2267 2.75867 9.29578 4.07984 6.78691 6.29185C6.71656 6.35225 6.65404 6.41264 6.59151 6.47304C6.19291 6.80522 5.69269 6.79767 5.37225 6.45039C5.06743 6.11821 5.06743 5.61994 5.45822 5.31041C6.31796 4.6234 7.16206 3.89865 8.09996 3.30979C10.9684 1.4979 14.1494 0.644799 17.6665 0.6297Z" fill="#87D65A"/>
<path d="M24.7085 25.211C24.6616 25.7772 24.2864 26.1169 23.7862 26.0716C23.286 26.0263 22.989 25.6413 23.0593 25.06C23.372 22.5838 23.4267 20.0924 23.3641 17.6011C23.3251 16.0534 22.7936 14.6945 21.6603 13.5847C20.824 12.7618 19.8158 12.2409 18.6434 12.022C17.8931 11.8785 17.5648 11.5237 17.6742 11.0028C17.7837 10.5045 18.2292 10.3082 18.956 10.4365C22.3325 11.0481 24.9039 13.9471 25.0055 17.2613C25.0367 18.2201 25.0133 19.1714 25.0133 20.1302C25.0524 20.1302 24.857 23.5199 24.7085 25.211Z" fill="#87D65A"/>
<path d="M12.8363 33.0172C14.3994 31.4091 15.2514 29.5369 15.8063 27.5211C16.5644 24.7731 16.7364 21.9722 16.7286 19.1487C16.7286 18.6353 16.6895 18.122 16.6817 17.601C16.6738 17.1179 17.0099 16.763 17.4711 16.7328C17.9166 16.7026 18.3308 17.0273 18.3464 17.5104C18.4793 21.5343 18.323 25.5356 16.9396 29.3934C16.4628 30.7297 15.8063 31.9829 14.9231 33.1229C14.759 33.3418 14.6027 33.4324 14.3057 33.3494C13.8523 33.221 13.3834 33.138 12.8363 33.0172Z" fill="#87D65A"/>
<path d="M21.7307 18.7259C21.7307 19.2393 21.7385 19.7602 21.7307 20.2736C21.7151 20.8171 21.3712 21.172 20.8866 21.1644C20.402 21.1644 20.0659 20.802 20.0581 20.2585C20.0425 19.3676 20.0425 18.4768 20.0269 17.5784C19.9956 16.1515 18.9014 15.1172 17.4711 15.1323C16.0799 15.1474 15.0247 16.227 15.0247 17.6463C15.0247 17.7973 15.0404 17.9483 15.0091 18.0993C14.9388 18.4617 14.5714 18.7259 14.1806 18.7184C13.7664 18.7108 13.4381 18.4239 13.3756 18.0314C13.063 15.9477 14.6027 13.9697 16.8302 13.5771C18.9717 13.1996 21.1602 14.6039 21.5744 16.6724C21.7073 17.3443 21.7073 18.0465 21.7698 18.7335C21.7542 18.7259 21.7385 18.7259 21.7307 18.7259Z" fill="#87D65A"/>
<path d="M16.0408 11.6143C16.0408 11.9389 15.7516 12.1654 15.3608 12.3164C14.0243 12.8297 13.0239 13.713 12.3517 14.9361C11.8593 15.8345 11.6795 16.7932 11.6717 17.8049C11.6639 19.5111 11.617 21.2248 11.5623 22.931C11.5467 23.467 11.1559 23.7992 10.6635 23.769C10.1711 23.7388 9.88191 23.3538 9.89755 22.8178C9.94444 21.1569 10.007 19.5035 9.99915 17.8426C9.9757 14.6492 11.828 11.886 14.8137 10.7838C15.4624 10.5422 16.0408 10.882 16.0408 11.6143Z" fill="#87D65A"/>
<path d="M0.00274434 17.5332C0.00274434 13.5093 1.0188 10.9198 3.01964 8.06605C3.16033 7.86976 3.37136 7.68102 3.5902 7.59798C3.93409 7.46964 4.26236 7.58288 4.4812 7.89241C4.70786 8.20194 4.66878 8.51902 4.4812 8.84365C3.95754 9.7345 3.37135 10.6102 2.9493 11.5464C1.62843 14.4907 1.33925 17.5558 2.01141 20.6964C2.08956 21.0664 2.07393 21.4061 1.73785 21.6552C1.47993 21.844 1.15948 21.9346 0.901561 21.7534C0.682719 21.5948 0.448245 21.3381 0.40135 21.0966C0.213771 19.9113 -0.0285189 17.5332 0.00274434 17.5332Z" fill="#87D65A"/>
<path d="M7.92798 13.9924C8.44383 13.9924 8.88933 14.4529 8.74083 14.921C8.27969 16.3478 8.36567 17.8049 8.3813 19.262C8.40475 21.3381 8.28751 23.4067 7.75603 25.4375C7.48248 26.4793 6.99008 27.3777 6.18506 28.1176C5.84898 28.4271 5.38784 28.4799 5.05176 28.2233C4.68442 27.9364 4.62189 27.4909 4.88763 27.1135C4.90326 27.0908 4.91889 27.0682 4.93453 27.0531C6.09908 26.049 6.27885 24.6599 6.48206 23.2934C6.73998 21.5193 6.76343 19.7376 6.68527 17.9483C6.63056 16.8235 6.77906 15.7137 7.11514 14.6341C7.24019 14.2038 7.52938 13.9848 7.92798 13.9924Z" fill="#87D65A"/>
<path d="M20.2613 4.09491C20.7459 4.22325 21.4415 4.35914 22.098 4.59318C26.256 6.03514 29.1557 8.74542 30.7892 12.7165C31.0081 13.2449 30.8283 13.7055 30.3593 13.8791C29.8904 14.0603 29.4605 13.8338 29.2339 13.2978C27.5144 9.1984 24.4271 6.6693 19.9721 5.69541C19.4485 5.58217 19.1827 5.25754 19.2375 4.78947C19.2765 4.38934 19.6204 4.09491 20.2613 4.09491Z" fill="#87D65A"/>
<path d="M28.3663 19.73C28.3819 22.5611 28.1474 25.377 27.6003 28.1628C27.53 28.5403 27.3659 28.8347 26.9594 28.9404C26.342 29.099 25.8418 28.6233 25.9356 27.9816C26.1388 26.5774 26.3889 25.1732 26.5218 23.769C26.7562 21.2625 26.8344 18.7486 26.5687 16.2421C26.5374 15.9326 26.4592 15.623 26.3811 15.3211C26.2404 14.7322 26.4436 14.317 26.9516 14.1811C27.4362 14.0603 27.8739 14.3396 27.9911 14.936C28.1474 15.7891 28.2725 16.6422 28.3428 17.5029C28.4132 18.2427 28.3663 18.9901 28.3663 19.73Z" fill="#87D65A"/>
<path d="M29.1401 29.0839C29.3199 27.9892 29.4996 26.9625 29.6403 25.9358C29.9998 23.4293 30.1015 20.9002 30.0389 18.3711C30.0233 17.7068 29.9842 17.0424 29.953 16.3705C29.9295 15.8873 30.2265 15.5174 30.6876 15.457C31.141 15.3966 31.5474 15.6986 31.6021 16.1893C31.6646 16.8235 31.6959 17.4652 31.7115 18.1069C31.7819 20.9002 31.6412 23.686 31.2582 26.4642C31.2426 26.5473 31.2426 26.653 31.1957 26.7209C30.6173 27.574 29.9295 28.3365 29.1401 29.0839Z" fill="#87D65A"/>
<path d="M16.7442 33.6212C17.2913 32.4963 17.9009 31.4167 18.3621 30.2767C19.2296 28.1629 19.636 25.9358 19.8627 23.6709C19.8705 23.5803 19.8705 23.4973 19.894 23.4067C19.9956 22.9612 20.402 22.6895 20.8475 22.7574C21.2774 22.8253 21.5822 23.1802 21.5431 23.6256C21.2227 27.0078 20.488 30.2767 18.7841 33.289C18.6513 33.523 18.5106 33.6514 18.2214 33.6287C17.8072 33.6061 17.3851 33.6287 16.9709 33.6287C16.8771 33.6363 16.7833 33.6212 16.7442 33.6212Z" fill="#87D65A"/>
<path d="M11.1481 32.4434C10.6557 32.2169 10.1789 31.998 9.64743 31.7564C9.85846 31.4771 10.007 31.2053 10.2258 31.0015C11.5701 29.7331 12.2501 28.1251 12.6565 26.4038C12.9223 25.294 13.0473 24.154 13.2349 23.0292C13.2583 22.9084 13.2661 22.78 13.2818 22.6517C13.3599 22.1912 13.7351 21.8892 14.1728 21.9345C14.6339 21.9798 14.9778 22.3497 14.9309 22.8253C14.8293 23.7615 14.759 24.7127 14.5323 25.6186C14.2353 26.8341 13.868 28.042 13.4303 29.2198C13.0473 30.2541 12.3908 31.16 11.5858 31.9452C11.4372 32.081 11.3122 32.2471 11.1481 32.4434Z" fill="#87D65A"/>
<path d="M3.4729 26.2453C3.19153 25.7696 2.93361 25.3318 2.6835 24.8939C2.65224 24.8335 2.62879 24.7354 2.66006 24.6901C3.19935 23.7841 3.19935 22.7725 3.30095 21.7759C3.36348 21.1493 3.35566 20.5227 3.38693 19.8961C3.41037 19.4356 3.75427 19.1412 4.23103 19.1487C4.7078 19.1563 5.05169 19.4356 5.05169 19.881C5.04388 21.5117 4.93446 23.1349 4.52022 24.7354C4.35609 25.3544 3.87932 25.7168 3.4729 26.2453Z" fill="#87D65A"/>
<path d="M8.18588 30.9034C7.76383 30.6014 7.34177 30.2918 6.85719 29.9446C7.20109 29.5218 7.53717 29.1292 7.8498 28.714C8.17806 28.2837 8.51414 27.8533 8.79551 27.3928C9.0847 26.9247 9.50675 26.7209 9.95225 26.9172C10.4056 27.121 10.5853 27.6193 10.2961 28.1025C9.95225 28.6687 9.54583 29.2047 9.13941 29.7407C8.85022 30.1257 8.52978 30.4881 8.18588 30.9034Z" fill="#87D65A"/>
<path d="M20.6833 33.3796C21.0898 32.3453 21.4806 31.379 21.8635 30.4051C21.9495 30.1861 21.9964 29.9445 22.0902 29.7256C22.2543 29.3104 22.6764 29.1141 23.0984 29.2273C23.5361 29.3557 23.8175 29.7633 23.6768 30.1937C23.4033 31.0317 23.0828 31.8546 22.778 32.6775C22.7467 32.753 22.6842 32.8511 22.6139 32.8662C21.9651 33.0474 21.3321 33.2059 20.6833 33.3796Z" fill="#87D65A"/>
<path d="M24.8492 31.9225C24.9664 31.5903 25.0602 31.2581 25.2009 30.9411C25.3337 30.6315 25.6151 30.4881 25.9512 30.4956C26.2795 30.5032 26.5452 30.6466 26.7015 31.009C26.1075 31.3412 25.5213 31.6734 24.9273 32.0055C24.9039 31.9678 24.8726 31.9452 24.8492 31.9225Z" fill="#87D65A"/>
</svg>
