<svg width="16" height="11" viewBox="0 0 16 11" fill="none" xmlns="http://www.w3.org/2000/svg">
<path d="M6.2176 7.95957V5.98966C6.22525 5.96412 6.22525 5.93789 6.2176 5.91236C6.17875 5.85002 5.97675 5.81012 5.72814 5.81012C5.47953 5.81012 5.29307 5.85002 5.25811 5.91485C5.25063 5.94039 5.25063 5.96661 5.25811 5.99215V9.92949C5.25063 9.95503 5.25063 9.98125 5.25811 10.0068C5.29307 10.0716 5.47564 10.1115 5.72814 10.1115C5.98064 10.1115 6.17486 10.0716 6.2176 10.0093C6.22525 9.98375 6.22525 9.95751 6.2176 9.93198V7.95957Z" fill="white"/>
<path d="M8.42789 7.95957V5.98966C8.43554 5.96412 8.43554 5.93789 8.42789 5.91236C8.38904 5.85002 8.18704 5.81012 7.93843 5.81012C7.68982 5.81012 7.50336 5.85002 7.4684 5.91485C7.45442 5.9396 7.44783 5.96583 7.44898 5.99215V9.92949C7.44783 9.95581 7.45442 9.98203 7.4684 10.0068C7.50336 10.0716 7.68594 10.1115 7.93843 10.1115C8.19093 10.1115 8.38516 10.0716 8.42789 10.0093C8.43554 9.98375 8.43554 9.95751 8.42789 9.93198V7.95957Z" fill="white"/>
<path d="M10.6344 7.95957V5.98966C10.642 5.96412 10.642 5.93789 10.6344 5.91236C10.5955 5.85002 10.3935 5.81012 10.1449 5.81012C9.89631 5.81012 9.70985 5.85002 9.67489 5.91485C9.6609 5.9396 9.65431 5.96583 9.65546 5.99215V9.92949C9.65431 9.95581 9.6609 9.98203 9.67489 10.0068C9.70985 10.0716 9.89242 10.1115 10.1449 10.1115C10.3974 10.1115 10.5916 10.0716 10.6344 10.0093C10.642 9.98375 10.642 9.95751 10.6344 9.93198V7.95957Z" fill="white"/>
<path d="M1.3697 5.30892H0.44906C0.446525 5.29401 0.446525 5.27896 0.44906 5.26404C0.44906 4.86507 0.44906 4.4661 0.44906 4.06713C0.45626 4.04255 0.471382 4.0192 0.493457 3.99859C0.515532 3.97798 0.544073 3.96055 0.57725 3.94744L7.50342 1.17958C7.67434 1.11474 7.84526 1.00253 8.01618 1.00004C8.1871 0.997546 8.34636 1.11225 8.50952 1.17708C10.8402 2.10303 13.1593 3.02814 15.4668 3.95242C15.5211 3.97237 15.5872 4.01726 15.5872 4.04967C15.5872 4.46361 15.5872 4.87754 15.5872 5.29646H14.4995V5.43859C14.4995 6.59311 14.4995 7.74763 14.4995 8.89966C14.5002 8.992 14.4725 9.08353 14.4179 9.16897C14.3801 9.23535 14.3096 9.29198 14.217 9.33024C14.1245 9.36851 14.0149 9.3863 13.9052 9.38092C13.5944 9.38092 13.2798 9.38092 12.9651 9.38092C12.8778 9.38556 12.7901 9.37824 12.7075 9.35945C12.625 9.34066 12.5497 9.31082 12.4865 9.27191C12.4233 9.233 12.3737 9.18592 12.3411 9.13378C12.3084 9.08164 12.2934 9.02564 12.297 8.96948C12.297 8.87722 12.297 8.78246 12.297 8.6902V5.31142H3.57613V5.44358C3.57613 6.63052 3.57613 7.81496 3.57613 8.9994C3.568 9.10684 3.5257 9.21207 3.45182 9.30861C3.41208 9.36381 3.34667 9.40976 3.26459 9.44012C3.1825 9.47049 3.08778 9.48378 2.99344 9.47817C2.68268 9.47817 2.36803 9.47817 2.05338 9.47817C1.96171 9.48446 1.86901 9.4775 1.78207 9.45779C1.69514 9.43809 1.61618 9.40614 1.55099 9.36429C1.4858 9.32244 1.43603 9.27176 1.40533 9.21595C1.37463 9.16015 1.36378 9.10064 1.37358 9.0418C1.37358 8.85478 1.37358 8.67025 1.37358 8.48324V5.30892H1.3697Z" stroke="white" stroke-width="0.75" stroke-linecap="round" stroke-linejoin="round"/>
<path d="M8.01227 10.9993H0.779221C0.608012 11.0056 0.439011 10.972 0.303374 10.9046C0.167737 10.8373 0.0746079 10.7407 0.0411549 10.6327C-0.0206333 10.512 -0.0126299 10.3811 0.0637001 10.2638C0.14003 10.1466 0.27958 10.0509 0.456803 9.99437C0.558824 9.9669 0.668607 9.95332 0.779221 9.95447H15.2453C15.3451 9.95082 15.4449 9.96079 15.5382 9.98372C15.6316 10.0067 15.7163 10.042 15.7867 10.0875C15.8572 10.133 15.9119 10.1875 15.9471 10.2475C15.9823 10.3076 15.9974 10.3717 15.9912 10.4357C16.003 10.5045 16.003 10.5739 15.9912 10.6427C15.9554 10.7482 15.8622 10.842 15.7284 10.9074C15.5945 10.9727 15.4288 11.0053 15.2609 10.9993H8.01227Z" fill="white"/>
<path d="M9.53122 2.99745H9.50403C9.435 2.99745 9.3688 2.97985 9.31999 2.94851C9.27118 2.91718 9.24376 2.87469 9.24376 2.83038C9.24377 2.80823 9.23691 2.7863 9.22359 2.76586C9.21026 2.74543 9.19074 2.7269 9.16616 2.71135C9.14158 2.6958 9.11243 2.68355 9.08041 2.6753C9.04838 2.66706 9.01412 2.66298 8.97961 2.66331H6.88972C6.82069 2.66331 6.75449 2.68091 6.70568 2.71224C6.65687 2.74357 6.62945 2.78607 6.62945 2.83038V3.12213C6.62894 3.14427 6.63529 3.16627 6.64814 3.18683C6.66099 3.20738 6.68008 3.2261 6.7043 3.24188C6.72852 3.25766 6.75738 3.27018 6.78921 3.27874C6.82105 3.28729 6.85521 3.29169 6.88972 3.29169H9.12334C9.32939 3.29169 9.527 3.34423 9.6727 3.43776C9.8184 3.53129 9.90025 3.65813 9.90025 3.7904V4.11955C9.90025 4.25182 9.8184 4.37867 9.6727 4.4722C9.527 4.56572 9.32939 4.61827 9.12334 4.61827H6.74987C6.54382 4.61827 6.34621 4.56572 6.20051 4.4722C6.05481 4.37867 5.97296 4.25182 5.97296 4.11955V4.10459C5.97296 4.08265 5.97969 4.06093 5.99277 4.04066C6.00585 4.02039 6.02502 4.00197 6.04919 3.98646C6.07336 3.97094 6.10205 3.95864 6.13363 3.95024C6.1652 3.94184 6.19905 3.93752 6.23323 3.93752H6.26042C6.2946 3.93752 6.32844 3.94184 6.36002 3.95024C6.3916 3.95864 6.42029 3.97094 6.44445 3.98646C6.46862 4.00197 6.48779 4.02039 6.50087 4.04066C6.51395 4.06093 6.52068 4.08265 6.52068 4.10459C6.52068 4.12653 6.52742 4.14826 6.5405 4.16853C6.55358 4.1888 6.57275 4.20721 6.59691 4.22273C6.62108 4.23824 6.64977 4.25055 6.68135 4.25894C6.71293 4.26734 6.74677 4.27166 6.78095 4.27166H9.08061C9.11512 4.27199 9.14938 4.26791 9.1814 4.25967C9.21343 4.25142 9.24258 4.23916 9.26716 4.22362C9.29174 4.20807 9.31126 4.18954 9.32458 4.16911C9.33791 4.14867 9.34476 4.12674 9.34476 4.10459V3.80287C9.34476 3.78072 9.33791 3.75879 9.32458 3.73835C9.31126 3.71792 9.29174 3.69939 9.26716 3.68384C9.24258 3.6683 9.21343 3.65604 9.1814 3.6478C9.14938 3.63955 9.11512 3.63547 9.08061 3.6358H6.85087C6.64482 3.6358 6.44721 3.58326 6.30151 3.48973C6.15581 3.3962 6.07396 3.26935 6.07396 3.13709V2.81292C6.07396 2.68066 6.15581 2.55381 6.30151 2.46028C6.44721 2.36675 6.64482 2.31421 6.85087 2.31421H9.01846C9.22451 2.31421 9.42212 2.36675 9.56782 2.46028C9.71352 2.55381 9.79537 2.68066 9.79537 2.81292V2.83038C9.79537 2.85253 9.78852 2.87446 9.77519 2.89489C9.76187 2.91533 9.74235 2.93386 9.71777 2.9494C9.69319 2.96495 9.66404 2.9772 9.63201 2.98545C9.59999 2.9937 9.56572 2.99778 9.53122 2.99745Z" fill="white"/>
<path d="M7.65875 1.9476V2.31914H8.18705V1.9476C8.18758 1.92524 8.1811 1.90304 8.16801 1.88231C8.15492 1.86159 8.13549 1.84276 8.11085 1.82695C8.08622 1.81114 8.05689 1.79866 8.02461 1.79026C7.99232 1.78185 7.95774 1.7777 7.9229 1.77803C7.85285 1.77803 7.78566 1.7959 7.73612 1.8277C7.68658 1.8595 7.65875 1.90263 7.65875 1.9476Z" fill="white"/>
<path d="M7.9229 5.15689C7.99296 5.15689 8.06015 5.13903 8.10968 5.10723C8.15922 5.07543 8.18705 5.0323 8.18705 4.98733V4.61578H7.65875V4.98733C7.65976 5.0321 7.68791 5.07485 7.73723 5.10651C7.78655 5.13818 7.85316 5.15625 7.9229 5.15689Z" fill="white"/>
</svg>
