<svg width="18" height="19" viewBox="0 0 18 19" fill="none" xmlns="http://www.w3.org/2000/svg">
<g clip-path="url(#clip0)">
<path d="M7.80448 7.69412C7.40839 7.69412 7.0123 7.69412 6.61621 7.69412C6.60154 7.23899 6.7189 6.81321 6.96829 6.44616C7.43773 5.71207 8.11254 5.33034 8.97807 5.30098C9.37416 5.28629 9.78492 5.28629 10.181 5.3597C11.2959 5.56525 12.0441 6.54894 12.0147 7.69412C11.9854 8.94209 11.1932 9.86704 9.96096 10.0873C9.85827 10.102 9.74091 10.102 9.60888 10.1166C9.60888 10.513 9.60888 10.8948 9.60888 11.3059C9.19812 11.3059 8.8167 11.3059 8.42061 11.3059C8.42061 10.513 8.42061 9.72022 8.42061 8.91272C8.65533 8.91272 8.89005 8.91272 9.12477 8.91272C9.37416 8.91272 9.62355 8.91272 9.85826 8.88336C10.3864 8.79527 10.7971 8.31076 10.8118 7.76753C10.8265 7.12153 10.5478 6.65171 9.99029 6.56362C9.56487 6.49021 9.09543 6.50489 8.67 6.5783C8.17122 6.68107 7.90717 7.07748 7.83382 7.59135C7.80448 7.62071 7.80448 7.65008 7.80448 7.69412Z" fill="#8CC85C"/>
<path d="M9.59425 12.5098C9.59425 12.9062 9.59425 13.2879 9.59425 13.699C9.21283 13.699 8.81674 13.699 8.42065 13.699C8.42065 13.3026 8.42065 12.9209 8.42065 12.5098C8.80207 12.5098 9.19816 12.5098 9.59425 12.5098Z" fill="#8CC85C"/>
<circle cx="9" cy="9.5" r="8.25" stroke="#29B0B4" stroke-width="1.5"/>
</g>
<defs>
<clipPath id="clip0">
<rect width="18" height="18" fill="white" transform="translate(0 0.5)"/>
</clipPath>
</defs>
</svg>
