<svg width="21" height="21" viewBox="0 0 21 21" fill="none" xmlns="http://www.w3.org/2000/svg">
<path d="M11.2644 11.6004L15.0444 9.5466C15.1613 9.47375 15.2627 9.37851 15.3427 9.26637C15.4227 9.15423 15.4797 9.0274 15.5105 8.89315C15.5414 8.7589 15.5454 8.61988 15.5223 8.48408C15.4993 8.34827 15.4496 8.21836 15.3762 8.1018C15.229 7.86589 14.9942 7.69801 14.7233 7.63502C14.4524 7.57203 14.1677 7.61906 13.9314 7.7658L10.1514 9.8196C10.0342 9.89212 9.93244 9.98711 9.85204 10.0991C9.77164 10.2111 9.71417 10.3378 9.68294 10.4721C9.65172 10.6064 9.64735 10.7455 9.67008 10.8815C9.69282 11.0175 9.74221 11.1476 9.81543 11.2644C9.88795 11.3822 9.98313 11.4845 10.0955 11.5652C10.2078 11.646 10.335 11.7037 10.4698 11.7349C10.6045 11.7662 10.7442 11.7704 10.8806 11.7473C11.017 11.7242 11.1475 11.6743 11.2644 11.6004Z" fill="#87D65A"/>
<path d="M10.5 0C8.4233 0 6.39323 0.615814 4.66652 1.76957C2.9398 2.92332 1.59399 4.5632 0.79927 6.48182C0.00454947 8.40045 -0.203386 10.5116 0.201759 12.5484C0.606904 14.5852 1.60693 16.4562 3.07538 17.9246C4.54384 19.3931 6.41476 20.3931 8.45156 20.7982C10.4884 21.2034 12.5996 20.9955 14.5182 20.2007C16.4368 19.406 18.0767 18.0602 19.2304 16.3335C20.3842 14.6068 21 12.5767 21 10.5C21 7.71523 19.8938 5.04451 17.9246 3.07538C15.9555 1.10625 13.2848 0 10.5 0V0ZM10.5 18.9C8.83864 18.9 7.21459 18.4073 5.83322 17.4843C4.45184 16.5613 3.37519 15.2494 2.73942 13.7145C2.10364 12.1796 1.93729 10.4907 2.26141 8.86124C2.58552 7.2318 3.38555 5.73506 4.56031 4.5603C5.73507 3.38554 7.23181 2.58552 8.86125 2.2614C10.4907 1.93729 12.1796 2.10364 13.7145 2.73941C15.2494 3.37519 16.5613 4.45184 17.4844 5.83321C18.4074 7.21458 18.9 8.83864 18.9 10.5C18.9 12.7278 18.015 14.8644 16.4397 16.4397C14.8644 18.015 12.7278 18.9 10.5 18.9Z" fill="#29B0B4"/>
<path d="M7.06438 5.754C6.8576 5.57753 6.59043 5.48813 6.31908 5.50462C6.04772 5.52111 5.79334 5.6422 5.60945 5.84242C5.42556 6.04263 5.32648 6.30637 5.33307 6.57814C5.33966 6.84991 5.4514 7.10853 5.64478 7.2996L10.0002 11.4996C10.1006 11.5988 10.2199 11.6767 10.3511 11.7287C10.4822 11.7808 10.6225 11.8058 10.7636 11.8024C10.9047 11.799 11.0436 11.7671 11.1721 11.7088C11.3006 11.6505 11.416 11.5669 11.5115 11.463C11.6069 11.359 11.6805 11.2369 11.7277 11.104C11.7749 10.971 11.7948 10.8298 11.7862 10.689C11.7777 10.5482 11.7408 10.4105 11.6779 10.2842C11.6149 10.1579 11.5271 10.0456 11.4198 9.954L7.06438 5.754Z" fill="#29B0B4"/>
</svg>
