<svg width="19" height="15" viewBox="0 0 19 15" fill="none" xmlns="http://www.w3.org/2000/svg">
<g clip-path="url(#clip0)">
<path d="M5.77006 15H0.453354V12.6486C0.453354 12.4054 0.576998 12.1622 0.741857 12L4.28633 8.95946C4.86333 8.47297 5.72884 8.87838 5.72884 9.60811V15H5.77006Z" fill="#29B0B4"/>
<path d="M10.8395 15H6.84164V10.2162C6.84164 9.85135 7.17136 9.60811 7.54229 9.72973L10.5098 10.6622C10.7158 10.7432 10.8807 10.9459 10.8807 11.1486V15H10.8395Z" fill="#87D65A"/>
<path d="M16.0325 15H12.4468C12.1171 15 11.8286 14.7162 11.8286 14.3919V7.98648C11.8286 7.82432 11.9111 7.66216 12.0347 7.54054L15.8677 4.17567C16.1562 3.89189 16.6508 4.13513 16.6508 4.5V14.3919C16.6095 14.7568 16.3623 15 16.0325 15Z" fill="#29B0B4"/>
<path d="M0.453354 10.1757L5.77006 5.59459L10.8395 6.6081L16.6095 2.02702" stroke="#87D65A" stroke-width="1.25" stroke-miterlimit="10" stroke-linecap="round" stroke-linejoin="round"/>
<path d="M15.8265 1.05405L17.5987 2.7973C17.7223 2.91892 17.8872 2.87838 17.9696 2.71621L18.9588 0.283783C19.0412 0.12162 18.8763 -0.0405417 18.7115 -1.16881e-06L15.9089 0.689188C15.744 0.729729 15.7028 0.932431 15.8265 1.05405Z" fill="#87D65A"/>
</g>
<defs>
<clipPath id="clip0">
<rect width="19" height="15" fill="white"/>
</clipPath>
</defs>
</svg>
