<svg width="22" height="23" viewBox="0 0 22 23" fill="none" xmlns="http://www.w3.org/2000/svg">
<path d="M14.3751 19.2959V22.0434C14.3751 22.36 14.115 22.62 13.7984 22.62C13.4819 22.62 13.2218 22.36 13.2218 22.0434V19.3185C10.8474 19.0697 8.9253 18.0408 7.51197 16.1413C6.40393 14.6602 5.89513 12.9755 5.98558 11.1325C6.08734 9.16517 6.83358 7.46918 8.21298 6.05585C9.56977 4.64253 11.2545 3.88499 13.2218 3.69278V0.95658C13.2218 0.639995 13.4819 0.379944 13.7984 0.379944C14.115 0.379944 14.3751 0.639995 14.3751 0.95658V3.70408C18.8525 4.31464 21.4982 8.14757 21.3399 11.8222C21.1816 15.1577 18.7281 18.6853 14.3751 19.2959ZM14.4994 5.18525C14.4994 9.41391 14.4994 13.6087 14.4994 17.8147C17.6766 17.3851 20.051 14.6715 20.051 11.5056C20.051 8.32848 17.6766 5.6262 14.4994 5.18525Z" fill="#28ABAE"/>
<path d="M4.22185 11.5396H1.62134" stroke="#8CC85D" stroke-width="2" stroke-miterlimit="10" stroke-linecap="round" stroke-linejoin="round"/>
<path d="M7.29737 4.94782L5.55615 3.2066" stroke="#8CC85D" stroke-width="2" stroke-miterlimit="10" stroke-linecap="round" stroke-linejoin="round"/>
<path d="M7.29737 18.2444L5.55615 19.9969" stroke="#8CC85D" stroke-width="2" stroke-miterlimit="10" stroke-linecap="round" stroke-linejoin="round"/>
</svg>
