<svg width="18" height="21" viewBox="0 0 18 21" fill="none" xmlns="http://www.w3.org/2000/svg">
<g clip-path="url(#clip0)">
<path d="M11.6591 4.4982C11.6595 4.69056 11.7112 4.87913 11.8086 5.04348C11.9059 5.20783 12.0452 5.34171 12.2114 5.4306C13.5924 6.1687 14.6922 7.3612 15.3347 8.81716C15.9772 10.2731 16.1253 11.9083 15.7552 13.4609C15.3852 15.0136 14.5183 16.3938 13.2936 17.3806C12.0688 18.3674 10.5569 18.9038 9.00001 18.9038C7.4431 18.9038 5.93121 18.3674 4.70644 17.3806C3.48167 16.3938 2.61485 15.0136 2.24478 13.4609C1.87471 11.9083 2.02279 10.2731 2.66532 8.81716C3.30785 7.3612 4.40766 6.1687 5.78864 5.4306C5.95476 5.34278 6.09416 5.20973 6.19156 5.04602C6.28897 4.88231 6.34064 4.69424 6.34092 4.5024C6.33972 4.32129 6.29327 4.14351 6.20601 3.9861C6.11875 3.82868 5.9936 3.69689 5.84254 3.60333C5.69148 3.50977 5.51957 3.45757 5.34324 3.45174C5.16691 3.44591 4.99208 3.48663 4.83546 3.57C3.05006 4.52678 1.62883 6.07073 0.79916 7.95483C-0.0305086 9.83892 -0.220667 11.9543 0.259109 13.9624C0.738886 15.9706 1.86087 17.7555 3.44555 19.0316C5.03023 20.3077 6.98602 21.0013 9.00001 21.0013C11.014 21.0013 12.9698 20.3077 14.5545 19.0316C16.1391 17.7555 17.2611 15.9706 17.7409 13.9624C18.2207 11.9543 18.0305 9.83892 17.2009 7.95483C16.3712 6.07073 14.95 4.52678 13.1646 3.57C13.0082 3.48678 12.8338 3.44605 12.6578 3.45169C12.4818 3.45733 12.3101 3.50915 12.1592 3.60222C12.0082 3.69529 11.883 3.8265 11.7955 3.98334C11.7079 4.14019 11.661 4.31744 11.6591 4.4982Z" fill="#29B0B4"/>
<path d="M10.0227 1.05C10.0227 0.470101 9.56483 0 8.99999 0C8.43516 0 7.97726 0.470101 7.97726 1.05V10.29C7.97726 10.8699 8.43516 11.34 8.99999 11.34C9.56483 11.34 10.0227 10.8699 10.0227 10.29V1.05Z" fill="#29B0B4"/>
</g>
<defs>
<clipPath id="clip0">
<rect width="18" height="21" fill="white"/>
</clipPath>
</defs>
</svg>
