<svg width="37" height="25" viewBox="0 0 37 25" fill="none" xmlns="http://www.w3.org/2000/svg">
<g clip-path="url(#clip0)">
<path d="M30.0241 10.7955H18.3047C17.5342 10.7955 16.9095 11.4314 16.9095 12.2159C16.9095 13.0004 17.5342 13.6364 18.3047 13.6364H30.0241C30.7947 13.6364 31.4193 13.0004 31.4193 12.2159C31.4193 11.4314 30.7947 10.7955 30.0241 10.7955Z" fill="white"/>
<path d="M5.85416 20.3636C6.00008 20.5125 6.17665 20.6265 6.37112 20.6974C6.56559 20.7683 6.7731 20.7944 6.97866 20.7737C7.18423 20.7531 7.38273 20.6862 7.55983 20.578C7.73692 20.4697 7.88819 20.3227 8.00272 20.1477C8.18199 19.8669 8.26097 19.5318 8.22643 19.1987C8.19188 18.8656 8.04591 18.5547 7.81298 18.3182L5.07844 15.5568H13.522C13.8903 15.5639 14.2475 15.4281 14.5211 15.177C14.7947 14.9259 14.9642 14.5782 14.9953 14.2045C15.0044 14.0118 14.975 13.8192 14.9091 13.6383C14.8432 13.4574 14.742 13.2919 14.6117 13.1518C14.4814 13.0117 14.3246 12.8999 14.1508 12.823C13.977 12.7461 13.7897 12.7058 13.6002 12.7045H1.11615C0.902383 12.7093 0.694477 12.7766 0.517158 12.8982C0.33984 13.0199 0.200572 13.1908 0.11592 13.3907C0.0312679 13.5906 0.00479456 13.8111 0.0396488 14.0259C0.074503 14.2406 0.169218 14.4407 0.312528 14.6023L5.85416 20.3636Z" fill="white"/>
<path d="M32.4127 5.11364H25.8386V4.67045C25.8386 3.43177 25.3553 2.24382 24.495 1.36794C23.6348 0.492064 22.4679 0 21.2513 0L13.6839 0C12.4673 0 11.3004 0.492064 10.4402 1.36794C9.57986 2.24382 9.09656 3.43177 9.09656 4.67045V10.7955H11.8869V4.67045C11.8869 4.18523 12.0762 3.71988 12.4132 3.37677C12.7502 3.03366 13.2073 2.84091 13.6839 2.84091H21.2513C21.7279 2.84091 22.185 3.03366 22.522 3.37677C22.859 3.71988 23.0483 4.18523 23.0483 4.67045V5.11364H18.3047C17.9347 5.11364 17.5798 5.26329 17.3182 5.52968C17.0565 5.79607 16.9095 6.15736 16.9095 6.53409C16.9095 6.91082 17.0565 7.27212 17.3182 7.5385C17.5798 7.80489 17.9347 7.95455 18.3047 7.95455H32.4127C32.8893 7.95455 33.3464 8.1473 33.6834 8.49041C34.0204 8.83351 34.2097 9.29887 34.2097 9.78409V20.3295C34.2097 20.8148 34.0204 21.2801 33.6834 21.6232C33.3464 21.9663 32.8893 22.1591 32.4127 22.1591H13.6839C13.2073 22.1591 12.7502 21.9663 12.4132 21.6232C12.0762 21.2801 11.8869 20.8148 11.8869 20.3295V18.5227C11.8478 18.608 9.09656 18.6136 9.09656 18.6136L9.2305 21.4545C9.47347 22.4731 10.0459 23.3788 10.8557 24.026C11.6655 24.6732 12.6656 25.0243 13.6951 25.0227H32.4127C33.6293 25.0227 34.7961 24.5307 35.6564 23.6548C36.5167 22.7789 37 21.591 37 20.3523V9.78409C37 8.54541 36.5167 7.35746 35.6564 6.48158C34.7961 5.6057 33.6293 5.11364 32.4127 5.11364Z" fill="white"/>
<path d="M8.14223 8.67611L4.71569 12.1647H0.71991L6.16667 6.67042C6.29627 6.53814 6.45022 6.43319 6.61972 6.36158C6.78923 6.28997 6.97094 6.25311 7.15445 6.25311C7.33796 6.25311 7.51967 6.28997 7.68917 6.36158C7.85867 6.43319 8.01263 6.53814 8.14223 6.67042C8.27199 6.80189 8.37495 6.95816 8.44521 7.13026C8.51547 7.30236 8.55164 7.48689 8.55164 7.67327C8.55164 7.85964 8.51547 8.04418 8.44521 8.21627C8.37495 8.38837 8.27199 8.54464 8.14223 8.67611Z" fill="white"/>
</g>
<defs>
<clipPath id="clip0">
<rect width="37" height="25" fill="white"/>
</clipPath>
</defs>
</svg>
