<svg width="21" height="22" viewBox="0 0 21 22" fill="none" xmlns="http://www.w3.org/2000/svg">
<path d="M20.9334 18.5328L20.3611 15.862C20.2125 15.159 19.9198 14.4933 19.5008 13.9055C19.0819 13.3176 18.5455 12.8201 17.9245 12.4432L14.4863 10.3488C15.0203 9.64757 15.3524 8.81767 15.4476 7.9464L15.7203 5.4164C15.7943 4.73363 15.7215 4.04319 15.5068 3.38988C15.292 2.73658 14.9401 2.13502 14.4738 1.62425C14.0075 1.11349 13.4373 0.704932 12.8001 0.425109C12.163 0.145286 11.4732 0.000448733 10.7754 1.47169e-07H10.2255C9.52743 -0.00016827 8.83712 0.144214 8.19944 0.423766C7.56177 0.703317 6.99099 1.11178 6.52421 1.62262C6.05742 2.13345 5.70507 2.73523 5.49006 3.38884C5.27505 4.04245 5.20218 4.73326 5.27619 5.4164L5.55339 7.9464C5.64859 8.81767 5.98065 9.64757 6.51464 10.3488L3.07201 12.4432C2.451 12.8201 1.91461 13.3176 1.49565 13.9055C1.07669 14.4933 0.783958 15.159 0.635353 15.862L0.0630725 18.5328C-0.0267886 18.9513 -0.0205581 19.3843 0.0813091 19.8002C0.183176 20.216 0.37811 20.6042 0.651881 20.9365C0.925652 21.2687 1.27135 21.5366 1.66375 21.7206C2.05615 21.9046 2.48534 22.0001 2.92 22H18.0765C18.5111 22.0001 18.9403 21.9046 19.3327 21.7206C19.7251 21.5366 20.0708 21.2687 20.3446 20.9365C20.6184 20.6042 20.8133 20.216 20.9152 19.8002C21.017 19.3843 21.0233 18.9513 20.9334 18.5328ZM8.18677 3.08C8.44406 2.7998 8.7588 2.57649 9.11024 2.4248C9.46167 2.27311 9.84179 2.19649 10.2255 2.2H10.7754C11.1599 2.19965 11.5401 2.27902 11.8912 2.43295C12.2424 2.58688 12.5567 2.81191 12.8136 3.09337C13.0705 3.37483 13.2642 3.70641 13.3822 4.06649C13.5002 4.42657 13.5397 4.80707 13.4982 5.1832L13.2255 7.7088C13.1534 8.37051 12.8352 8.9826 12.3321 9.42737C11.8291 9.87214 11.1767 10.1182 10.5005 10.1182C9.82424 10.1182 9.17188 9.87214 8.66884 9.42737C8.1658 8.9826 7.8476 8.37051 7.77544 7.7088L7.50272 5.1832C7.45568 4.80481 7.49247 4.42089 7.61055 4.05783C7.72864 3.69477 7.92521 3.36118 8.18677 3.08ZM18.6085 19.536C18.5456 19.6155 18.4648 19.6795 18.3725 19.723C18.2802 19.7665 18.1788 19.7883 18.0765 19.7868H2.92C2.81765 19.7883 2.71633 19.7665 2.62401 19.723C2.53169 19.6795 2.45089 19.6155 2.38796 19.536C2.32302 19.461 2.27572 19.3728 2.24944 19.2777C2.22316 19.1827 2.21855 19.083 2.23595 18.986L2.80823 16.3152C2.89886 15.9039 3.07312 15.5149 3.32054 15.1716C3.56795 14.8283 3.88339 14.5378 4.24787 14.3176L8.32984 11.8272C9.0052 12.1515 9.74678 12.3201 10.4982 12.3201C11.2497 12.3201 11.9913 12.1515 12.6667 11.8272L16.7486 14.3176C17.1106 14.5391 17.4235 14.8302 17.6685 15.1734C17.9136 15.5166 18.0858 15.905 18.1748 16.3152L18.7471 18.986C18.7684 19.0841 18.767 19.1856 18.743 19.2831C18.719 19.3806 18.6731 19.4716 18.6085 19.5492V19.536Z" fill="#29B0B4"/>
<path d="M14.7452 15.84H12.5097C11.8924 15.84 11.392 16.3325 11.392 16.94C11.392 17.5475 11.8924 18.04 12.5097 18.04H14.7452C15.3625 18.04 15.8629 17.5475 15.8629 16.94C15.8629 16.3325 15.3625 15.84 14.7452 15.84Z" fill="#87D65A"/>
</svg>
