<svg width="17" height="17" viewBox="0 0 17 17" fill="none" xmlns="http://www.w3.org/2000/svg">
<path d="M16.7519 15.5451L13.1521 11.9461C12.9751 11.7698 12.7355 11.6708 12.4857 11.6708C12.2359 11.6708 11.9962 11.7698 11.8193 11.9461C10.8707 12.863 9.6447 13.4395 8.33333 13.5852C7.02196 13.7309 5.6993 13.4375 4.57256 12.7511C3.44582 12.0646 2.57865 11.0239 2.10692 9.79191C1.63518 8.55993 1.58553 7.20629 1.96573 5.94307C2.34593 4.67985 3.13451 3.5784 4.20793 2.81129C5.28135 2.04418 6.57896 1.65474 7.89748 1.70397C9.21601 1.75321 10.4809 2.23835 11.4941 3.08339C12.5073 3.92843 13.2115 5.08562 13.4964 6.37368C13.7006 7.30814 13.6795 8.27773 13.4351 9.20247C13.4062 9.31078 13.3989 9.42372 13.4137 9.53483C13.4285 9.64594 13.465 9.75306 13.5212 9.85006C13.5774 9.94706 13.6521 10.032 13.7412 10.1002C13.8302 10.1683 13.9318 10.2182 14.0401 10.2471C14.2589 10.3054 14.4919 10.2744 14.6878 10.1609C14.8838 10.0475 15.0266 9.86087 15.0849 9.64212C15.5546 7.87729 15.38 6.0029 14.5926 4.3551C13.8051 2.70729 12.4563 1.39386 10.7879 0.650354C9.11953 -0.0931557 7.24081 -0.218108 5.48865 0.297905C3.73648 0.813918 2.2255 1.93714 1.22666 3.46614C0.227825 4.99514 -0.193522 6.8299 0.0381826 8.64137C0.269887 10.4529 1.13949 12.1226 2.49103 13.351C3.84257 14.5795 5.58765 15.2864 7.41331 15.345C9.23896 15.4036 11.0258 14.8099 12.4533 13.6706L15.5451 16.7584C15.6243 16.8377 15.7183 16.9007 15.8219 16.9437C15.9254 16.9866 16.0364 17.0087 16.1485 17.0087C16.2606 17.0087 16.3716 16.9866 16.4751 16.9437C16.5787 16.9007 16.6727 16.8377 16.7519 16.7584C16.8323 16.6791 16.8961 16.5847 16.9397 16.4805C16.9832 16.3764 17.0057 16.2646 17.0057 16.1517C17.0057 16.0389 16.9832 15.9271 16.9397 15.823C16.8961 15.7188 16.8323 15.6244 16.7519 15.5451Z" fill="white"/>
<path d="M10.2266 10.2244C10.0904 10.0979 9.91608 10.0203 9.73097 10.0036C9.54587 9.98696 9.36047 10.0323 9.20391 10.1324C8.76197 10.405 8.25499 10.5542 7.73579 10.5644C7.21658 10.5746 6.70414 10.4454 6.25184 10.1903C6.0985 10.1009 5.92031 10.0635 5.74394 10.0838C5.56757 10.104 5.40252 10.1809 5.27349 10.3028L5.22236 10.3505C5.13081 10.4377 5.06063 10.5449 5.01728 10.6636C4.97393 10.7824 4.95859 10.9096 4.97245 11.0352C4.9863 11.1609 5.02898 11.2816 5.09716 11.3881C5.16534 11.4946 5.25718 11.5839 5.36553 11.649C6.0943 12.0691 6.92397 12.2823 7.76502 12.2654C8.60607 12.2486 9.42656 12.0025 10.1379 11.5536C10.2419 11.4876 10.3296 11.399 10.3947 11.2945C10.4598 11.19 10.5006 11.0722 10.514 10.9498C10.5274 10.8275 10.5132 10.7036 10.4723 10.5875C10.4314 10.4714 10.3649 10.3659 10.2777 10.2789L10.2266 10.2244Z" fill="white"/>
</svg>
