<svg width="18" height="10" viewBox="0 0 18 10" fill="none" xmlns="http://www.w3.org/2000/svg">
<path d="M9.19083 5.2843V6.28767C9.34346 6.26194 9.47064 6.18476 9.54695 6.10758C9.62326 6.00467 9.67414 5.90176 9.67414 5.74739C9.67414 5.64448 9.62326 5.54157 9.54695 5.46439C9.47064 5.38721 9.34346 5.33576 9.19083 5.2843Z" fill="white"/>
<path d="M8.19881 3.97225C8.19881 4.10089 8.24968 4.2038 8.32599 4.28098C8.4023 4.35816 8.52949 4.43534 8.70755 4.4868V3.40625C8.55492 3.43198 8.42774 3.50916 8.32599 3.61207C8.24968 3.71498 8.19881 3.81789 8.19881 3.97225Z" fill="white"/>
<path d="M8.8856 1.14221C6.85064 1.14221 5.19724 2.81449 5.19724 4.87267C5.19724 6.93085 6.85064 8.60313 8.8856 8.60313C10.9206 8.60313 12.574 6.93085 12.574 4.87267C12.574 2.81449 10.9206 1.14221 8.8856 1.14221ZM10.0557 6.46776C9.8522 6.67358 9.57239 6.80222 9.21628 6.85367V7.47113H8.65666V6.85367C8.40229 6.82794 8.17336 6.77649 7.96986 6.69931C7.76637 6.62212 7.56287 6.51922 7.41025 6.39058L7.66462 5.87603C7.9953 6.13331 8.32598 6.26194 8.70754 6.28767V5.12994C8.45317 5.07849 8.24967 5.00131 8.09705 4.92412C7.91899 4.84694 7.79181 4.74403 7.66462 4.58967C7.56287 4.43531 7.48656 4.25521 7.48656 3.99794C7.48656 3.79212 7.53744 3.61203 7.63918 3.45767C7.74093 3.3033 7.86812 3.14894 8.04618 3.04603C8.22423 2.94312 8.42773 2.86594 8.65666 2.84021V2.22276H9.21628V2.84021C9.41977 2.86594 9.62327 2.9174 9.82676 2.99458C10.0048 3.07176 10.1829 3.17467 10.3101 3.27758L10.0557 3.79212C9.77589 3.56058 9.49608 3.43194 9.19084 3.38049V4.58967C9.44521 4.64112 9.6487 4.71831 9.80133 4.79549C9.95395 4.87267 10.1066 4.97558 10.2083 5.12994C10.3101 5.28431 10.3609 5.4644 10.3609 5.69594C10.3609 6.00467 10.2592 6.26194 10.0557 6.46776Z" fill="white"/>
<path d="M1.27994 6.87943C1.20363 6.87943 1.10189 6.8537 1.00014 6.8537V7.85706C1.00014 8.44879 1.458 8.91188 2.04305 8.91188H3.03509C3.03509 8.80897 3.03509 8.73179 3.00966 8.62888C2.90791 7.72843 2.19567 6.98234 1.27994 6.87943Z" fill="white"/>
<path d="M3.03509 1.1165C3.03509 1.03931 3.06052 0.936405 3.06052 0.833496H2.06848C1.48343 0.833496 1.02557 1.29659 1.02557 1.88832V2.89168C1.12731 2.89168 1.20362 2.89168 1.30537 2.86595C2.19567 2.76304 2.9079 2.04268 3.03509 1.1165Z" fill="white"/>
<path d="M16.1351 0.576233H1.6615C1.15276 0.576233 0.745766 0.98787 0.745766 1.50242V8.26869C0.745766 8.78324 1.15276 9.19488 1.6615 9.19488H16.1351C16.6439 9.19488 17.0509 8.78324 17.0509 8.26869V1.50242C17.0254 0.98787 16.6184 0.576233 16.1351 0.576233ZM16.7711 2.91742C16.6693 2.91742 16.593 2.91742 16.4913 2.89169V6.87942C16.5676 6.87942 16.6693 6.85369 16.7711 6.85369V7.85706C16.7711 8.44879 16.3132 8.91188 15.7281 8.91188H14.7361C14.7361 8.80897 14.7361 8.73179 14.7615 8.62888H3.03509C3.03509 8.70606 3.06053 8.80897 3.06053 8.91188H2.06849C1.48344 8.91188 1.02557 8.44879 1.02557 7.85706V6.85369C1.12732 6.85369 1.20363 6.85369 1.30538 6.87942V2.89169C1.22907 2.89169 1.12732 2.91742 1.02557 2.91742V1.91405C1.02557 1.32232 1.48344 0.859233 2.06849 0.859233H3.06053C3.06053 0.962142 3.06053 1.03932 3.03509 1.14223H14.7361C14.7361 1.06505 14.7107 0.962142 14.7107 0.859233H15.7027C16.2878 0.859233 16.7456 1.32232 16.7456 1.91405V2.91742H16.7711Z" fill="white"/>
<path d="M15.7281 0.859253H14.7361C14.7361 0.962162 14.7361 1.03934 14.7615 1.14225C14.8887 2.06844 15.601 2.7888 16.5167 2.91744C16.593 2.91744 16.6947 2.94316 16.7965 2.94316V1.91407C16.7711 1.32234 16.2878 0.859253 15.7281 0.859253Z" fill="white"/>
<path d="M14.7361 8.65458C14.7361 8.73176 14.7107 8.83467 14.7107 8.93758H15.7027C16.2878 8.93758 16.7456 8.47449 16.7456 7.88276V6.87939C16.6439 6.87939 16.5676 6.87939 16.4658 6.90512C15.5755 6.9823 14.8633 7.7284 14.7361 8.65458Z" fill="white"/>
</svg>
