<svg width="20" height="12" viewBox="0 0 20 12" fill="none" xmlns="http://www.w3.org/2000/svg">
<path d="M20 9.2069C19.8961 9.46552 19.8442 9.77586 19.6883 10.0345C19.0649 11.069 17.8182 11.2759 16.8831 10.5C15.7403 9.56896 14.5974 8.58621 13.4545 7.60345C12.4156 6.72414 12.4675 5.17241 13.5065 4.2931C14.5974 3.36207 15.6883 2.48276 16.7273 1.55172C17.9221 0.517242 19.5844 1.08621 19.948 2.58621C19.948 2.63793 20 2.68966 20 2.74138C20 4.96552 20 7.08621 20 9.2069ZM18.4416 6.05172C18.4416 5.12069 18.4416 4.18966 18.4416 3.25862C18.4416 3.10345 18.4416 3 18.3896 2.84483C18.2857 2.53448 18.0779 2.48276 17.8701 2.68966C16.7792 3.62069 15.6883 4.5 14.6493 5.43103C14.2857 5.74138 14.2857 6.2069 14.6493 6.56897C15.013 6.87931 15.3766 7.18966 15.7403 7.5C16.4675 8.12069 17.1948 8.68965 17.8701 9.31034C18.0779 9.51724 18.2857 9.46552 18.3896 9.2069C18.4416 9.05172 18.4416 8.89655 18.4416 8.7931C18.4416 7.86207 18.4416 6.93103 18.4416 6.05172Z" fill="#87D65A"/>
<path d="M12.3117 6C12.3117 7.44828 12.3117 8.94828 12.3117 10.3966C12.3117 11.069 12.0519 11.5345 11.4286 11.8448C11.2208 11.9483 10.9091 12 10.6493 12C7.63636 12 4.62338 12 1.55844 12C0.675325 12 0 11.3793 0 10.4483C0 7.5 0 4.55172 0 1.60345C0 0.827586 0.415584 0.258621 1.14286 0.0517241C1.35065 0 1.50649 0 1.66234 0C4.67532 0 7.68831 0 10.7013 0C11.5325 0 12.1039 0.413793 12.3117 1.13793C12.3636 1.2931 12.3636 1.5 12.3636 1.65517C12.3117 3.10345 12.3117 4.55172 12.3117 6ZM1.61039 10.4483C4.67532 10.4483 7.74026 10.4483 10.7532 10.4483C10.7532 7.44828 10.7532 4.5 10.7532 1.55172C7.68831 1.55172 4.62338 1.55172 1.61039 1.55172C1.61039 4.55172 1.61039 7.5 1.61039 10.4483Z" fill="#28ABAE"/>
</svg>
