<svg width="21" height="21" viewBox="0 0 21 21" fill="none" xmlns="http://www.w3.org/2000/svg">
<path d="M15.9248 10.167L18.7974 12.7444L20 5.83866L15.1175 1.52163C14.7383 1.18757 14.2249 1 13.6897 1C13.1544 1 12.641 1.18757 12.2619 1.52163L1.37923 11.1476C1.25911 11.2524 1.16372 11.3773 1.09862 11.515C1.03352 11.6527 1 11.8005 1 11.9497C1 12.099 1.03352 12.2468 1.09862 12.3845C1.16372 12.5222 1.25911 12.6471 1.37923 12.7519L9.17684 19.6464C9.29542 19.7526 9.43669 19.8369 9.59243 19.8945C9.74817 19.952 9.91528 19.9817 10.0841 19.9817C10.2529 19.9817 10.42 19.952 10.5757 19.8945C10.7315 19.8369 10.8727 19.7526 10.9913 19.6464L16.694 14.6042" stroke="#28ABAE" stroke-width="2" stroke-linecap="round" stroke-linejoin="round"/>
<path d="M16.9872 6.78643C16.9872 5.85266 16.131 5.09569 15.0749 5.09569C14.0188 5.09569 13.1627 5.85266 13.1627 6.78643C13.1627 7.7202 14.0188 8.47717 15.0749 8.47717C16.131 8.47717 16.9872 7.7202 16.9872 6.78643Z" fill="#87D65A"/>
</svg>
